<svg xmlns="http://www.w3.org/2000/svg" xmlns:xlink="http://www.w3.org/1999/xlink" xmlns:serif="http://www.serif.com/" width="100%" height="100%" viewBox="0 0 700 249" version="1.1" xml:space="preserve" style="clip-rule:evenodd;fill-rule:evenodd;stroke-linejoin:round;stroke-miterlimit:1">
  <g>
    <path d="M91.7 10.8l68.1 39.5 540.2 0 0 166.7 -700 0 0-166.7 23.6 0 68.1-39.5Z" style="fill-rule:nonzero;fill:#fff"/>
    <path d="M91.7 20.8l68.1 39.3 -34 19.7 -34.1-19.7 -34.1 19.7 -34-19.7 68.1-39.3Z" style="fill-rule:nonzero;fill:#f59c4a"/>
    <path d="M524 70.6c0.2-0.6 0.5-1.3 0.7-2.1 0.2-0.8 0.5-1.7 0.8-2.6 0.3 0.9 0.5 1.8 0.8 2.6 0.3 0.8 0.5 1.5 0.7 2.1l4.9 13.3 -12.7 0 4.8-13.3Zm5.3-11.6l-7.6 0 -15.7 39.9 5.8 0c0.6 0 1.2-0.2 1.6-0.5 0.4-0.4 0.7-0.7 0.9-1.2l3-8.1 16.5 0 3 8.1c0.2 0.5 0.5 0.9 0.9 1.2 0.4 0.3 0.9 0.5 1.6 0.5l5.7 0 -15.7-39.9Zm-42.6 5.7l5.6 0c1.4 0 2.5 0.2 3.6 0.5 1 0.3 1.9 0.8 2.5 1.4 0.7 0.6 1.2 1.3 1.5 2.2 0.3 0.9 0.5 1.8 0.5 2.9 0 1.1-0.2 2.1-0.5 3.1 -0.3 0.9-0.8 1.7-1.5 2.3 -0.7 0.6-1.5 1.1-2.5 1.5 -1 0.3-2.2 0.5-3.6 0.5l-5.6 0 0-14.4Zm5.6 20.1c2.6 0 4.9-0.3 6.8-1 1.9-0.6 3.5-1.5 4.8-2.7 1.3-1.2 2.3-2.5 2.9-4.2 0.6-1.6 1-3.4 1-5.3 0-1.9-0.3-3.6-0.9-5.1 -0.6-1.6-1.5-2.9-2.8-4 -1.3-1.1-2.9-2-4.8-2.6 -2-0.6-4.3-0.9-6.9-0.9l-13 0 0 39.9 7.4 0 0-14.1 5.5 0Zm-41.1 7.4c-1.1-0.5-2.1-1.2-2.9-2 -0.8-0.9-1.4-1.9-1.8-3.2 -0.4-1.2-0.6-2.6-0.6-4.1l0-23.9 -7.4 0 0 23.9c0 2.4 0.4 4.6 1.1 6.6 0.8 2 1.9 3.8 3.3 5.2 1.4 1.5 3.2 2.6 5.2 3.4 2 0.8 4.3 1.2 6.9 1.2 2.6 0 4.9-0.4 6.9-1.2 2-0.8 3.8-2 5.2-3.4 1.4-1.5 2.5-3.2 3.3-5.2 0.8-2 1.1-4.2 1.1-6.6l0-23.9 -7.4 0 0 23.9c0 1.5-0.2 2.9-0.6 4.1 -0.4 1.2-1 2.3-1.8 3.1 -0.8 0.9-1.7 1.5-2.9 2 -1.1 0.5-2.4 0.7-3.9 0.7 -1.5 0-2.6-0.1-3.7-0.6m-61.5-32.4l-1.4 0 0 39.1 2.5 0 0-32.9c0-0.5 0-1-0.1-1.6l25.4 33.9c0.3 0.4 0.6 0.6 1 0.6l1.4 0 0-39.1 -2.5 0 0 32.8c0 0.5 0 1 0.1 1.6l-25.3-33.8c-0.2-0.2-0.3-0.4-0.5-0.4 -0.1-0.1-0.3-0.2-0.6-0.2m-25.9 5.2c0.1-0.3 0.3-0.7 0.4-1.1 0.1-0.4 0.3-0.8 0.4-1.3 0.1 0.4 0.3 0.9 0.4 1.3 0.1 0.4 0.3 0.7 0.4 1.1l8 19.7 -17.5 0 7.9-19.7Zm2.2-5.2l-2.8 0 -16 39.1 2.2 0c0.3 0 0.5-0.1 0.7-0.2 0.2-0.1 0.3-0.3 0.4-0.5l4.6-11.3 19.2 0 4.6 11.3c0.1 0.2 0.2 0.4 0.4 0.5 0.2 0.1 0.4 0.2 0.6 0.2l2.2 0 -16.1-39.1Zm-45 27.7l-15.8-27.2c-0.1-0.2-0.3-0.4-0.5-0.4 -0.2-0.1-0.4-0.1-0.6-0.1l-1.9 0 0 39.1 2.5 0 0-33.3c0-0.5 0-1-0.1-1.5l15.8 27.3c0.3 0.5 0.6 0.7 1.1 0.7l0.4 0c0.5 0 0.8-0.2 1.1-0.7l15.4-27.3c-0.1 0.5-0.1 1-0.1 1.5l0 33.3 2.5 0 0-39.1 -2 0c-0.3 0-0.5 0-0.6 0.1 -0.1 0.1-0.3 0.2-0.4 0.4l-15.4 27.1c-0.1 0.3-0.3 0.5-0.4 0.8 -0.1 0.3-0.2 0.6-0.3 0.9 -0.2-0.5-0.4-1.1-0.7-1.6m-49.7-25.4l7.2 0c3.5 0 6.1 0.7 8 2 1.8 1.3 2.7 3.4 2.7 6.2 0 1.4-0.2 2.6-0.7 3.7 -0.5 1.1-1.2 2-2.2 2.8 -0.9 0.8-2.1 1.4-3.5 1.8 -1.4 0.4-2.9 0.6-4.7 0.6l-6.8 0 0-17.1Zm5.1 19.1c0.8 0 1.3 0.1 1.7 0.2 0.4 0.2 0.7 0.5 1 0.9l12.5 15.8c0.2 0.3 0.4 0.4 0.6 0.6 0.2 0.1 0.5 0.2 0.8 0.2l2.5 0 -13.5-16.9c-0.4-0.5-0.7-0.8-1.2-1.1 1.7-0.2 3.2-0.6 4.6-1.2 1.4-0.6 2.5-1.4 3.5-2.3 1-0.9 1.7-2 2.2-3.2 0.5-1.2 0.8-2.6 0.8-4.1 0-3.4-1.1-5.9-3.3-7.7 -2.2-1.7-5.6-2.6-10.1-2.6l-10 0 0 39.1 2.8 0 0-17.7 5.1 0Zm-39.7-21.4l0 39.1 23.4 0 0-2.3 -20.6 0 0-16.4 17.1 0 0-2.2 -17.1 0 0-15.8 20.6 0 0-2.3 -23.4 0 0-0.1Zm-30.9 36c-2-0.8-3.7-2-5.1-3.5 -1.4-1.5-2.5-3.4-3.3-5.6 -0.8-2.2-1.2-4.7-1.2-7.4 0-2.7 0.4-5.1 1.2-7.3 0.8-2.2 1.9-4 3.3-5.5 1.4-1.5 3.2-2.7 5.2-3.5 2-0.8 4.3-1.2 6.9-1.2 1.9 0 3.5 0.2 4.9 0.5 1.3 0.3 2.5 0.7 3.4 1.2 0.9 0.4 1.6 0.9 2.1 1.3 0.5 0.4 0.9 0.7 1.2 0.8 0.1 0.1 0.3 0.1 0.5 0.1 0.3 0 0.5-0.1 0.7-0.4l0.7-1.2c-0.9-0.8-1.8-1.4-2.7-2 -0.9-0.6-2-1.1-3-1.5 -1.1-0.4-2.3-0.7-3.5-0.9 -1.3-0.2-2.6-0.3-4.1-0.3 -3 0-5.7 0.5-8.1 1.4 -2.4 0.9-4.5 2.3-6.2 4 -1.7 1.7-3 3.8-3.9 6.3 -0.9 2.5-1.4 5.2-1.4 8.2 0 3 0.5 5.8 1.4 8.2 0.9 2.5 2.2 4.6 3.9 6.3 1.7 1.7 3.7 3.1 6 4 2.3 0.9 4.9 1.4 7.7 1.4 1.6 0 3.1-0.1 4.5-0.3 1.4-0.2 2.7-0.5 3.9-0.8 1.2-0.4 2.3-0.8 3.4-1.3 1.1-0.5 2.1-1.1 3-1.8l0-13.8 -10.8 0 0 1.5c0 0.2 0.1 0.3 0.2 0.4 0.1 0.1 0.3 0.2 0.5 0.2l7.5 0 0 10.5c-0.9 0.5-1.7 0.9-2.6 1.3 -0.9 0.4-1.8 0.7-2.7 1 -0.9 0.3-2 0.5-3.1 0.6 -1.1 0.1-2.3 0.2-3.7 0.2 -2.5 0.1-4.7-0.3-6.7-1.1" style="fill-rule:nonzero;fill:#3b3a33"/>
    <path d="M606.4 165c-0.6-0.5-1.2-0.9-1.8-1.1 -0.7-0.2-1.4-0.4-2.3-0.4 -0.7 0-1.4 0.1-1.9 0.3 -0.6 0.2-1.1 0.5-1.5 0.8 -0.4 0.3-0.7 0.7-0.9 1.2 -0.2 0.5-0.3 0.9-0.3 1.4 0 0.6 0.1 1.1 0.3 1.5 0.2 0.4 0.5 0.7 0.9 1 0.4 0.3 0.8 0.5 1.2 0.7 0.5 0.2 0.9 0.3 1.4 0.5 0.5 0.1 1 0.3 1.4 0.4 0.5 0.2 0.9 0.3 1.2 0.5 0.4 0.2 0.7 0.5 0.9 0.8 0.2 0.3 0.3 0.7 0.3 1.2 0 0.4-0.1 0.8-0.2 1.2 -0.2 0.4-0.4 0.7-0.7 1 -0.3 0.3-0.7 0.5-1.1 0.7 -0.4 0.2-1 0.2-1.6 0.2 -0.6 0-1.2-0.1-1.6-0.2 -0.4-0.2-0.8-0.3-1.1-0.5 -0.3-0.2-0.5-0.3-0.7-0.5 -0.2-0.1-0.3-0.2-0.4-0.2 -0.1 0-0.2 0-0.2 0.1 -0.1 0-0.1 0.1-0.2 0.2l-0.3 0.5c0.6 0.5 1.2 0.9 1.9 1.2 0.7 0.3 1.6 0.5 2.5 0.5 0.8 0 1.5-0.1 2.1-0.3 0.6-0.2 1.1-0.5 1.5-0.9 0.4-0.4 0.7-0.8 1-1.4 0.2-0.5 0.3-1.1 0.3-1.7 0-0.6-0.1-1-0.3-1.4 -0.2-0.4-0.5-0.7-0.9-1 -0.4-0.3-0.8-0.5-1.2-0.7 -0.5-0.2-0.9-0.4-1.4-0.5 -0.5-0.2-1-0.3-1.4-0.5 -0.5-0.1-0.9-0.3-1.2-0.5 -0.4-0.2-0.7-0.5-0.9-0.7 -0.2-0.3-0.3-0.7-0.3-1.1 0-0.4 0.1-0.7 0.2-1 0.2-0.3 0.4-0.6 0.7-0.8 0.3-0.2 0.7-0.4 1.1-0.6 0.4-0.1 0.9-0.2 1.4-0.2 0.6 0 1 0.1 1.4 0.2 0.4 0.1 0.7 0.2 1 0.4 0.3 0.1 0.5 0.3 0.6 0.4 0.2 0.1 0.3 0.2 0.4 0.2 0.1 0 0.2-0.1 0.3-0.2l0.4-0.7Zm-14 12.7l1.3 0 0-20.4 -1.3 0 0 20.4Zm-11.7-0.9c-0.3-0.1-0.6-0.3-0.9-0.5 -0.3-0.2-0.5-0.5-0.6-0.8 -0.2-0.3-0.2-0.7-0.2-1.2 0-0.5 0.1-0.9 0.4-1.3 0.3-0.4 0.8-0.7 1.4-1 0.6-0.3 1.4-0.5 2.4-0.7 1-0.2 2.1-0.3 3.4-0.3l0 3.6c-0.3 0.3-0.7 0.7-1 0.9 -0.3 0.3-0.7 0.5-1.1 0.8 -0.4 0.2-0.8 0.4-1.3 0.5 -0.5 0.1-1 0.2-1.5 0.2 -0.3 0-0.7-0.1-1-0.2m7.2 0.9l0-9.1c0-0.8-0.1-1.5-0.3-2.1 -0.2-0.6-0.5-1.2-0.8-1.6 -0.4-0.4-0.8-0.8-1.4-1 -0.6-0.2-1.2-0.4-2-0.4 -1 0-1.9 0.2-2.7 0.6 -0.8 0.4-1.6 0.9-2.3 1.7l0.2 0.4c0.1 0.2 0.2 0.3 0.4 0.3 0.1 0 0.3-0.1 0.5-0.3 0.2-0.2 0.5-0.4 0.8-0.6 0.3-0.2 0.7-0.4 1.2-0.6 0.5-0.2 1-0.3 1.7-0.3 1.1 0 1.9 0.3 2.5 1 0.6 0.7 0.8 1.7 0.8 3l0 1.5c-1.6 0-2.9 0.2-4.1 0.4 -1.1 0.2-2.1 0.5-2.8 0.9 -0.7 0.4-1.2 0.8-1.6 1.3 -0.3 0.5-0.5 1.1-0.5 1.6 0 0.6 0.1 1.2 0.3 1.6 0.2 0.5 0.5 0.8 0.8 1.1 0.3 0.3 0.7 0.5 1.2 0.6 0.4 0.1 0.9 0.2 1.4 0.2 0.6 0 1.1-0.1 1.6-0.2 0.5-0.1 0.9-0.3 1.3-0.5 0.4-0.2 0.8-0.5 1.2-0.8 0.4-0.3 0.8-0.6 1.1-1l0.2 1.8c0.1 0.3 0.2 0.4 0.5 0.4l0.8 0 0 0.1Zm-23.2 0l0-10.5c0.6-0.8 1.3-1.5 2.1-1.9 0.8-0.5 1.6-0.7 2.6-0.7 1.2 0 2.2 0.4 2.8 1.1 0.6 0.7 0.9 1.8 0.9 3.1l0 8.9 1.3 0 0-8.9c0-0.8-0.1-1.5-0.3-2.2 -0.2-0.6-0.5-1.2-0.9-1.7 -0.4-0.5-0.9-0.8-1.5-1.1 -0.6-0.2-1.3-0.4-2-0.4 -1 0-2 0.2-2.8 0.7 -0.8 0.5-1.6 1.1-2.2 1.9l-0.1-2.1c0-0.2-0.2-0.4-0.4-0.4l-0.7 0 0 14 1.2 0 0 0.2Zm-13.6-1.3c-0.6-0.3-1.1-0.7-1.6-1.2 -0.4-0.5-0.7-1.2-0.9-1.9 -0.2-0.8-0.3-1.6-0.3-2.5 0-0.9 0.1-1.8 0.3-2.5 0.2-0.8 0.5-1.4 0.9-1.9 0.4-0.5 0.9-1 1.6-1.2 0.6-0.3 1.4-0.4 2.2-0.4 0.8 0 1.6 0.1 2.2 0.4 0.6 0.3 1.1 0.7 1.6 1.2 0.4 0.5 0.7 1.2 0.9 1.9 0.2 0.8 0.3 1.6 0.3 2.5 0 0.9-0.1 1.8-0.3 2.5 -0.2 0.8-0.5 1.4-0.9 1.9 -0.4 0.5-0.9 0.9-1.6 1.2 -0.6 0.3-1.4 0.4-2.2 0.4 -0.8 0.1-1.6-0.1-2.2-0.4m-0.5-12.3c-0.8 0.3-1.5 0.8-2 1.5 -0.5 0.6-1 1.4-1.2 2.3 -0.3 0.9-0.4 1.9-0.4 3 0 1.1 0.1 2.1 0.4 3 0.3 0.9 0.7 1.6 1.2 2.3 0.5 0.6 1.2 1.1 2 1.4 0.8 0.3 1.7 0.5 2.7 0.5 1 0 1.9-0.2 2.7-0.5 0.8-0.3 1.5-0.8 2-1.4 0.5-0.6 1-1.4 1.2-2.3 0.3-0.9 0.4-1.9 0.4-3 0-1.1-0.1-2.1-0.4-3 -0.3-0.9-0.7-1.6-1.2-2.3 -0.5-0.6-1.2-1.1-2-1.5 -0.8-0.3-1.7-0.5-2.7-0.5 -1-0.1-1.9 0.1-2.7 0.5m-7-5.6c-0.1-0.2-0.2-0.3-0.3-0.4 -0.1-0.1-0.2-0.2-0.4-0.3 -0.2-0.1-0.3-0.1-0.5-0.1 -0.2 0-0.3 0-0.5 0.1 -0.2 0.1-0.3 0.2-0.4 0.3 -0.1 0.1-0.2 0.2-0.3 0.4 -0.1 0.2-0.1 0.3-0.1 0.5 0 0.2 0 0.3 0.1 0.5 0.1 0.1 0.2 0.3 0.3 0.4 0.1 0.1 0.2 0.2 0.4 0.3 0.1 0.1 0.3 0.1 0.5 0.1 0.2 0 0.3 0 0.5-0.1 0.1-0.1 0.3-0.2 0.4-0.3 0.1-0.1 0.2-0.2 0.3-0.4 0.1-0.1 0.1-0.3 0.1-0.5 0-0.2 0-0.4-0.1-0.5m-1.8 19.2l1.3 0 0-14 -1.3 0 0 14Zm-4.1-12.7c-0.6-0.5-1.2-0.9-1.8-1.1 -0.7-0.2-1.4-0.4-2.3-0.4 -0.7 0-1.4 0.1-1.9 0.3 -0.6 0.2-1.1 0.5-1.5 0.8 -0.4 0.3-0.7 0.7-0.9 1.2 -0.2 0.5-0.3 0.9-0.3 1.4 0 0.6 0.1 1.1 0.3 1.5 0.2 0.4 0.5 0.7 0.9 1 0.4 0.3 0.8 0.5 1.2 0.7 0.5 0.2 0.9 0.3 1.4 0.5 0.5 0.1 1 0.3 1.4 0.4 0.5 0.2 0.9 0.3 1.2 0.5 0.4 0.2 0.7 0.5 0.9 0.8 0.2 0.3 0.3 0.7 0.3 1.2 0 0.4-0.1 0.8-0.2 1.2 -0.2 0.4-0.4 0.7-0.7 1 -0.3 0.3-0.7 0.5-1.1 0.7 -0.4 0.2-1 0.2-1.6 0.2 -0.6 0-1.2-0.1-1.6-0.2 -0.4-0.2-0.8-0.3-1.1-0.5 -0.3-0.2-0.5-0.3-0.7-0.5 -0.2-0.1-0.3-0.2-0.5-0.2 -0.1 0-0.2 0-0.2 0.1 -0.1 0-0.1 0.1-0.2 0.2l-0.3 0.5c0.6 0.5 1.2 0.9 1.9 1.2 0.7 0.3 1.6 0.5 2.5 0.5 0.8 0 1.5-0.1 2.1-0.3 0.6-0.2 1.1-0.5 1.5-0.9 0.4-0.4 0.7-0.8 1-1.4 0.2-0.5 0.3-1.1 0.3-1.7 0-0.6-0.1-1-0.3-1.4 -0.2-0.4-0.5-0.7-0.9-1 -0.4-0.3-0.8-0.5-1.2-0.7 -0.5-0.2-0.9-0.4-1.4-0.5 -0.5-0.2-1-0.3-1.4-0.5 -0.5-0.1-0.9-0.3-1.2-0.5 -0.4-0.2-0.7-0.5-0.9-0.7 -0.2-0.3-0.3-0.7-0.3-1.1 0-0.4 0.1-0.7 0.2-1 0.2-0.3 0.4-0.6 0.7-0.8 0.3-0.2 0.7-0.4 1.1-0.6 0.4-0.1 0.9-0.2 1.4-0.2 0.6 0 1 0.1 1.4 0.2 0.4 0.1 0.7 0.2 1 0.4 0.3 0.1 0.5 0.3 0.6 0.4 0.2 0.1 0.3 0.2 0.4 0.2 0.1 0 0.2-0.1 0.3-0.2l0.5-0.7Zm-12.1 0c-0.6-0.5-1.2-0.9-1.8-1.1 -0.7-0.2-1.4-0.4-2.3-0.4 -0.7 0-1.4 0.1-1.9 0.3 -0.6 0.2-1.1 0.5-1.5 0.8 -0.4 0.3-0.7 0.7-0.9 1.2 -0.2 0.5-0.3 0.9-0.3 1.4 0 0.6 0.1 1.1 0.3 1.5 0.2 0.4 0.5 0.7 0.9 1 0.4 0.3 0.8 0.5 1.2 0.7 0.5 0.2 0.9 0.3 1.4 0.5 0.5 0.1 1 0.3 1.4 0.4 0.5 0.2 0.9 0.3 1.2 0.5 0.4 0.2 0.7 0.5 0.9 0.8 0.2 0.3 0.3 0.7 0.3 1.2 0 0.4-0.1 0.8-0.2 1.2 -0.2 0.4-0.4 0.7-0.7 1 -0.3 0.3-0.7 0.5-1.1 0.7 -0.4 0.2-1 0.2-1.6 0.2 -0.6 0-1.2-0.1-1.6-0.2 -0.4-0.2-0.8-0.3-1.1-0.5 -0.3-0.2-0.5-0.3-0.7-0.5 -0.2-0.1-0.3-0.2-0.4-0.2 -0.1 0-0.2 0-0.2 0.1 -0.1 0-0.1 0.1-0.2 0.2l-0.3 0.5c0.6 0.5 1.2 0.9 1.9 1.2 0.7 0.3 1.6 0.5 2.5 0.5 0.8 0 1.5-0.1 2.1-0.3 0.6-0.2 1.1-0.5 1.5-0.9 0.4-0.4 0.7-0.8 1-1.4 0.2-0.5 0.3-1.1 0.3-1.7 0-0.6-0.1-1-0.3-1.4 -0.2-0.4-0.5-0.7-0.9-1 -0.4-0.3-0.8-0.5-1.2-0.7 -0.5-0.2-0.9-0.4-1.4-0.5 -0.5-0.2-1-0.3-1.4-0.5 -0.5-0.1-0.9-0.3-1.2-0.5 -0.4-0.2-0.7-0.5-0.9-0.7 -0.2-0.3-0.3-0.7-0.3-1.1 0-0.4 0.1-0.7 0.2-1 0.2-0.3 0.4-0.6 0.7-0.8 0.3-0.2 0.7-0.4 1.1-0.6 0.4-0.1 0.9-0.2 1.4-0.2 0.6 0 1 0.1 1.4 0.2 0.4 0.1 0.7 0.2 1 0.4 0.3 0.1 0.5 0.3 0.6 0.4 0.2 0.1 0.3 0.2 0.4 0.2 0.1 0 0.2-0.1 0.3-0.2l0.4-0.7Zm-15.5-0.1c0.5 0.2 1 0.5 1.3 0.9 0.4 0.4 0.7 0.9 0.9 1.5 0.2 0.6 0.3 1.3 0.3 2l-9.2 0c0.1-0.7 0.3-1.4 0.5-2 0.3-0.6 0.6-1.1 1-1.5 0.4-0.4 0.9-0.7 1.5-1 0.6-0.2 1.2-0.3 1.9-0.3 0.7 0 1.3 0.1 1.8 0.4m-4.4-0.8c-0.8 0.3-1.4 0.8-2 1.4 -0.5 0.6-1 1.3-1.2 2.2 -0.3 0.8-0.4 1.8-0.4 2.8 0 1.2 0.2 2.2 0.5 3.2 0.3 0.9 0.7 1.7 1.3 2.3 0.6 0.6 1.2 1.1 2 1.5 0.8 0.3 1.7 0.5 2.6 0.5 0.5 0 1-0.1 1.6-0.2 0.5-0.1 1-0.2 1.5-0.4 0.5-0.2 0.9-0.4 1.2-0.6 0.4-0.2 0.7-0.5 0.9-0.8l-0.4-0.5c-0.1-0.1-0.2-0.1-0.3-0.1 -0.1 0-0.2 0.1-0.5 0.2 -0.2 0.2-0.5 0.3-0.8 0.5 -0.4 0.2-0.8 0.4-1.3 0.5 -0.5 0.2-1.1 0.2-1.8 0.2 -0.8 0-1.5-0.1-2.1-0.4 -0.6-0.3-1.2-0.7-1.6-1.2 -0.5-0.5-0.8-1.2-1-2 -0.2-0.8-0.4-1.7-0.4-2.8l0-0.3 10.1 0c0.1 0 0.2 0 0.3-0.1 0.1-0.1 0.1-0.2 0.1-0.4 0-1-0.1-1.9-0.4-2.6 -0.3-0.8-0.7-1.4-1.2-1.9 -0.5-0.5-1.1-0.9-1.7-1.2 -0.7-0.3-1.4-0.4-2.2-0.4 -1.2 0-2.1 0.2-2.8 0.6m-9.9 13.6l0-12.5 4.5 0 0-1 -4.5 0 0-1.7c0-0.7 0.1-1.3 0.2-1.8 0.2-0.5 0.4-0.9 0.7-1.2 0.3-0.3 0.6-0.5 1-0.7 0.4-0.1 0.8-0.2 1.3-0.2l1.2 0c0.2 0 0.3-0.1 0.3-0.2l0-0.6c-0.2-0.1-0.5-0.2-0.8-0.2 -0.3-0.1-0.6-0.1-0.9-0.1 -0.6 0-1.2 0.1-1.7 0.3 -0.5 0.2-1 0.5-1.4 0.9 -0.4 0.4-0.7 0.9-0.9 1.5 -0.2 0.6-0.3 1.3-0.3 2.1l0 1.8 -2.4 0 0 0.5c0 0.2 0.1 0.3 0.4 0.4l2 0.1 0 12.5 1.3 0 0 0.1Zm-13.9-1.3c-0.6-0.3-1.1-0.7-1.6-1.2 -0.4-0.5-0.7-1.2-0.9-1.9 -0.2-0.8-0.3-1.6-0.3-2.5 0-0.9 0.1-1.8 0.3-2.5 0.2-0.8 0.5-1.4 0.9-1.9 0.4-0.5 0.9-1 1.6-1.2 0.6-0.3 1.3-0.4 2.2-0.4 0.8 0 1.6 0.1 2.2 0.4 0.6 0.3 1.1 0.7 1.6 1.2 0.4 0.5 0.7 1.2 0.9 1.9 0.2 0.8 0.3 1.6 0.3 2.5 0 0.9-0.1 1.8-0.3 2.5 -0.2 0.8-0.5 1.4-0.9 1.9 -0.4 0.5-0.9 0.9-1.6 1.2 -0.6 0.3-1.4 0.4-2.2 0.4 -0.8 0.1-1.5-0.1-2.2-0.4m-0.5-12.3c-0.8 0.3-1.5 0.8-2 1.5 -0.5 0.6-1 1.4-1.3 2.3 -0.3 0.9-0.4 1.9-0.4 3 0 1.1 0.1 2.1 0.4 3 0.3 0.9 0.7 1.6 1.3 2.3 0.5 0.6 1.2 1.1 2 1.4 0.8 0.3 1.7 0.5 2.7 0.5 1 0 1.9-0.2 2.7-0.5 0.8-0.3 1.5-0.8 2-1.4 0.5-0.6 1-1.4 1.2-2.3 0.3-0.9 0.4-1.9 0.4-3 0-1.1-0.1-2.1-0.4-3 -0.3-0.9-0.7-1.6-1.2-2.3 -0.5-0.6-1.2-1.1-2-1.5 -0.8-0.3-1.7-0.5-2.7-0.5 -1-0.1-1.9 0.1-2.7 0.5m-12.1 13.6l0-9.1c0.4-1.2 1-2.2 1.7-2.8 0.7-0.7 1.5-1 2.6-1 0.3 0 0.5 0 0.8 0.1 0.2 0 0.4 0.1 0.6 0.1 0.2 0 0.3 0.1 0.4 0.1 0.1 0 0.2 0.1 0.2 0.1 0.2 0 0.3-0.1 0.3-0.2l0.2-0.9c-0.3-0.2-0.7-0.3-1-0.4 -0.4-0.1-0.7-0.1-1.2-0.1 -1.1 0-2 0.3-2.8 1 -0.8 0.6-1.3 1.5-1.8 2.7l-0.1-3c0-0.2 0-0.3-0.1-0.3 -0.1-0.1-0.2-0.1-0.3-0.1l-0.7 0 0 14 1.2 0 0-0.2Zm-15.7-18.7l3.7 0c1.9 0 3.3 0.4 4.2 1.2 0.9 0.8 1.4 2 1.4 3.5 0 0.7-0.1 1.3-0.4 1.9 -0.3 0.6-0.6 1.1-1.1 1.5 -0.5 0.4-1.1 0.8-1.8 1 -0.7 0.2-1.5 0.4-2.4 0.4l-3.7 0 0-9.5 0.1 0Zm3.7 10.7c1.1 0 2.1-0.1 3-0.4 0.9-0.3 1.6-0.7 2.2-1.2 0.6-0.5 1.1-1.2 1.4-1.9 0.3-0.7 0.5-1.5 0.5-2.4 0-1.9-0.6-3.3-1.8-4.4 -1.2-1-2.9-1.5-5.3-1.5l-5.1 0 0 19.9 1.4 0 0-8 3.7 0 0-0.1Zm-19-4.8c0.5 0.2 1 0.5 1.3 0.9 0.4 0.4 0.7 0.9 0.9 1.5 0.2 0.6 0.3 1.3 0.3 2l-9.2 0c0.1-0.7 0.3-1.4 0.5-2 0.3-0.6 0.6-1.1 1-1.5 0.4-0.4 0.9-0.7 1.5-1 0.6-0.2 1.2-0.3 1.9-0.3 0.7 0 1.3 0.1 1.8 0.4m-4.4-0.8c-0.8 0.3-1.4 0.8-2 1.4 -0.5 0.6-1 1.3-1.2 2.2 -0.3 0.8-0.4 1.8-0.4 2.8 0 1.2 0.2 2.2 0.5 3.2 0.3 0.9 0.7 1.7 1.3 2.3 0.6 0.6 1.2 1.1 2 1.5 0.8 0.3 1.7 0.5 2.6 0.5 0.5 0 1-0.1 1.6-0.2 0.5-0.1 1-0.2 1.5-0.4 0.5-0.2 0.9-0.4 1.2-0.6 0.4-0.2 0.7-0.5 0.9-0.8l-0.4-0.5c-0.1-0.1-0.2-0.1-0.3-0.1 -0.1 0-0.2 0.1-0.5 0.2 -0.2 0.2-0.5 0.3-0.8 0.5 -0.4 0.2-0.8 0.4-1.3 0.5 -0.5 0.2-1.1 0.2-1.8 0.2 -0.8 0-1.5-0.1-2.1-0.4 -0.6-0.3-1.2-0.7-1.6-1.2 -0.5-0.5-0.8-1.2-1-2 -0.2-0.8-0.4-1.7-0.4-2.8l0-0.3 10.1 0c0.1 0 0.2 0 0.3-0.1 0.1-0.1 0.1-0.2 0.1-0.4 0-1-0.1-1.9-0.4-2.6 -0.3-0.8-0.7-1.4-1.2-1.9 -0.5-0.5-1.1-0.9-1.7-1.2 -0.7-0.3-1.4-0.4-2.2-0.4 -1.1 0-2 0.2-2.8 0.6m-5.8 1.1c-0.5-0.5-1.1-0.9-1.8-1.2 -0.7-0.3-1.5-0.4-2.4-0.4 -1 0-1.9 0.2-2.7 0.5 -0.8 0.4-1.4 0.8-2 1.5 -0.5 0.6-0.9 1.4-1.2 2.3 -0.3 0.9-0.4 1.9-0.4 2.9 0 1.1 0.1 2.1 0.4 3 0.3 0.9 0.7 1.6 1.2 2.3 0.5 0.6 1.2 1.1 1.9 1.4 0.7 0.3 1.5 0.5 2.4 0.5 0.5 0 1-0.1 1.5-0.1 0.5-0.1 0.9-0.2 1.3-0.4 0.4-0.2 0.8-0.4 1.1-0.6 0.3-0.2 0.6-0.5 0.8-0.8l-0.4-0.5c-0.1-0.1-0.2-0.1-0.3-0.1 -0.1 0-0.2 0.1-0.4 0.2 -0.2 0.2-0.4 0.3-0.7 0.5 -0.3 0.2-0.7 0.4-1.1 0.5 -0.5 0.2-1 0.2-1.7 0.2 -0.7 0-1.4-0.1-2-0.4 -0.6-0.3-1.1-0.7-1.5-1.2 -0.4-0.5-0.7-1.2-1-1.9 -0.2-0.8-0.3-1.6-0.3-2.6 0-0.9 0.1-1.8 0.3-2.6 0.2-0.8 0.5-1.4 1-1.9 0.4-0.5 1-0.9 1.6-1.2 0.6-0.3 1.3-0.4 2.1-0.4 0.6 0 1.1 0.1 1.5 0.2 0.4 0.1 0.7 0.3 1 0.4 0.3 0.2 0.5 0.3 0.7 0.4 0.2 0.1 0.3 0.2 0.4 0.2 0.1 0 0.1 0 0.2 0l0.1-0.1 0.4-0.6Zm-23.7 12.5l0-10.5c0.6-0.8 1.3-1.5 2.1-1.9 0.8-0.5 1.6-0.7 2.6-0.7 1.2 0 2.2 0.4 2.8 1.1 0.6 0.7 0.9 1.8 0.9 3.1l0 8.9 1.3 0 0-8.9c0-0.8-0.1-1.5-0.3-2.2 -0.2-0.6-0.5-1.2-0.9-1.7 -0.4-0.5-0.9-0.8-1.5-1.1 -0.6-0.2-1.3-0.4-2-0.4 -1 0-2 0.2-2.8 0.7 -0.8 0.5-1.6 1.1-2.2 1.9l-0.1-2.1c0-0.2-0.2-0.4-0.4-0.4l-0.9 0 0 14 1.4 0 0 0.2Zm-8.7-12.8c0.5 0.2 1 0.5 1.3 0.9 0.4 0.4 0.7 0.9 0.9 1.5 0.2 0.6 0.3 1.3 0.3 2l-9.2 0c0.1-0.7 0.3-1.4 0.5-2 0.3-0.6 0.6-1.1 1-1.5 0.4-0.4 0.9-0.7 1.5-1 0.6-0.2 1.2-0.3 1.9-0.3 0.7 0 1.3 0.1 1.8 0.4m-4.4-0.8c-0.8 0.3-1.4 0.8-2 1.4 -0.5 0.6-1 1.3-1.2 2.2 -0.3 0.8-0.4 1.8-0.4 2.8 0 1.2 0.2 2.2 0.5 3.2 0.3 0.9 0.7 1.7 1.3 2.3 0.6 0.6 1.2 1.1 2 1.5 0.8 0.3 1.7 0.5 2.6 0.5 0.5 0 1-0.1 1.6-0.2 0.5-0.1 1-0.2 1.5-0.4 0.5-0.2 0.9-0.4 1.2-0.6 0.4-0.2 0.7-0.5 0.9-0.8l-0.4-0.5c-0.1-0.1-0.2-0.1-0.3-0.1 -0.1 0-0.2 0.1-0.5 0.2 -0.2 0.2-0.5 0.3-0.8 0.5 -0.4 0.2-0.8 0.4-1.3 0.5 -0.5 0.2-1.1 0.2-1.8 0.2 -0.8 0-1.5-0.1-2.1-0.4 -0.6-0.3-1.2-0.7-1.6-1.2 -0.5-0.5-0.8-1.2-1-2 -0.2-0.8-0.4-1.7-0.4-2.8l0-0.3 10.1 0c0.1 0 0.2 0 0.3-0.1 0.1-0.1 0.1-0.2 0.1-0.4 0-1-0.1-1.9-0.4-2.6 -0.3-0.8-0.7-1.4-1.2-1.9 -0.5-0.5-1.1-0.9-1.7-1.2 -0.7-0.3-1.4-0.4-2.2-0.4 -1.1 0-2 0.2-2.8 0.6m-7-5.6c-0.1-0.2-0.2-0.3-0.3-0.4 -0.1-0.1-0.2-0.2-0.4-0.3 -0.1-0.1-0.3-0.1-0.5-0.1 -0.2 0-0.3 0-0.5 0.1 -0.2 0.1-0.3 0.2-0.4 0.3 -0.1 0.1-0.2 0.2-0.3 0.4 -0.1 0.2-0.1 0.3-0.1 0.5 0 0.2 0 0.3 0.1 0.5 0.1 0.1 0.2 0.3 0.3 0.4 0.1 0.1 0.2 0.2 0.4 0.3 0.2 0.1 0.3 0.1 0.5 0.1 0.2 0 0.3 0 0.5-0.1 0.2-0.1 0.3-0.2 0.4-0.3 0.1-0.1 0.2-0.2 0.3-0.4 0.1-0.1 0.1-0.3 0.1-0.5 0-0.2 0-0.4-0.1-0.5m-1.8 19.2l1.3 0 0-14 -1.3 0 0 14Zm-10.1 0l0-9.1c0.4-1.2 1-2.2 1.6-2.8 0.7-0.7 1.5-1 2.6-1 0.3 0 0.5 0 0.8 0.1 0.2 0 0.4 0.1 0.6 0.1 0.2 0 0.3 0.1 0.4 0.1 0.1 0 0.2 0.1 0.2 0.1 0.2 0 0.3-0.1 0.3-0.2l0.2-0.9c-0.3-0.2-0.7-0.3-1-0.4 -0.4-0.1-0.7-0.1-1.2-0.1 -1.1 0-2 0.3-2.8 1 -0.7 0.6-1.3 1.5-1.8 2.7l-0.1-3c0-0.2-0.1-0.3-0.1-0.3 -0.1-0.1-0.2-0.1-0.3-0.1l-0.7 0 0 14 1.3 0 0-0.2Zm-8.6-12.8c0.5 0.2 1 0.5 1.3 0.9 0.4 0.4 0.7 0.9 0.9 1.5 0.2 0.6 0.3 1.3 0.3 2l-9.2 0c0.1-0.7 0.3-1.4 0.5-2 0.3-0.6 0.6-1.1 1-1.5 0.4-0.4 0.9-0.7 1.5-1 0.6-0.2 1.2-0.3 1.9-0.3 0.7 0 1.2 0.1 1.8 0.4m-4.5-0.8c-0.8 0.3-1.4 0.8-2 1.4 -0.5 0.6-1 1.3-1.2 2.2 -0.3 0.8-0.4 1.8-0.4 2.8 0 1.2 0.2 2.2 0.5 3.2 0.3 0.9 0.7 1.7 1.3 2.3 0.6 0.6 1.2 1.1 2 1.5 0.8 0.3 1.7 0.5 2.6 0.5 0.5 0 1-0.1 1.6-0.2 0.5-0.1 1-0.2 1.5-0.4 0.5-0.2 0.9-0.4 1.2-0.6 0.4-0.2 0.7-0.5 0.9-0.8l-0.4-0.5c-0.1-0.1-0.2-0.1-0.3-0.1 -0.1 0-0.2 0.1-0.5 0.2 -0.2 0.2-0.5 0.3-0.8 0.5 -0.4 0.2-0.8 0.4-1.3 0.5 -0.5 0.2-1.1 0.2-1.8 0.2 -0.8 0-1.5-0.1-2.1-0.4 -0.6-0.3-1.2-0.7-1.6-1.2 -0.5-0.5-0.8-1.2-1-2 -0.2-0.8-0.4-1.7-0.4-2.8l0-0.3 10.1 0c0.1 0 0.2 0 0.3-0.1 0.1-0.1 0.1-0.2 0.1-0.4 0-1-0.1-1.9-0.4-2.6 -0.3-0.8-0.7-1.4-1.2-1.9 -0.5-0.5-1.1-0.9-1.7-1.2 -0.7-0.3-1.4-0.4-2.2-0.4 -1.1 0-2 0.2-2.8 0.6m-8.9 2c0.8 1 1.1 2.5 1.1 4.6 0 0.9-0.1 1.8-0.3 2.5 -0.2 0.8-0.5 1.4-0.9 2 -0.4 0.5-0.9 1-1.6 1.3 -0.6 0.3-1.3 0.5-2.2 0.5 -0.8 0-1.6-0.2-2.2-0.5 -0.7-0.3-1.2-0.9-1.8-1.7l0-7.3c0.6-0.9 1.2-1.5 2-2 0.8-0.5 1.6-0.7 2.5-0.7 1.6-0.2 2.7 0.3 3.4 1.3m-7.8 16.6l0-6.8c0.5 0.7 1.1 1.2 1.8 1.5 0.7 0.3 1.5 0.5 2.5 0.5 1 0 1.9-0.2 2.6-0.6 0.8-0.4 1.4-0.9 1.9-1.5 0.5-0.7 0.9-1.4 1.2-2.3 0.3-0.9 0.4-1.8 0.4-2.9 0-2.4-0.5-4.2-1.4-5.4 -1-1.2-2.3-1.8-4-1.8 -1 0-2 0.2-2.8 0.7 -0.8 0.5-1.6 1.2-2.2 2l-0.1-2.2c0-0.1-0.1-0.2-0.1-0.3 -0.1-0.1-0.2-0.1-0.3-0.1l-0.7 0 0 18.9 1.2 0 0 0.3Zm-16.3-5l1.2 0c0.1 0 0.2 0 0.3-0.1 0.1-0.1 0.1-0.1 0.2-0.2l4.1-5.7c0.1-0.1 0.2-0.3 0.2-0.5l4.2 6.2c0 0.1 0.1 0.2 0.2 0.2 0.1 0.1 0.2 0.1 0.3 0.1l1.3 0 -5.1-7.2 4.9-6.8 -1.2 0c-0.1 0-0.2 0-0.2 0.1 -0.1 0.1-0.1 0.1-0.2 0.2l-3.8 5.4c-0.1 0.2-0.2 0.3-0.2 0.5l-4.1-5.9c0-0.1-0.1-0.1-0.2-0.2 -0.1-0.1-0.2-0.1-0.3-0.1l-1.3 0 4.9 6.8 -5.2 7.2Zm-14.9-19.8l0 19.9 11.9 0 0-1.2 -10.5 0 0-8.3 8.7 0 0-1.2 -8.7 0 0-8 10.5 0 0-1.2 -11.9 0Zm-15.9 19.8l0-9.1c0.4-1.2 1-2.2 1.7-2.8 0.7-0.7 1.5-1 2.6-1 0.3 0 0.5 0 0.8 0.1 0.2 0 0.4 0.1 0.6 0.1 0.2 0 0.3 0.1 0.4 0.1 0.1 0 0.2 0.1 0.2 0.1 0.2 0 0.3-0.1 0.3-0.2l0.2-0.9c-0.3-0.2-0.7-0.3-1-0.4 -0.4-0.1-0.7-0.1-1.2-0.1 -1.1 0-2 0.3-2.8 1 -0.8 0.6-1.3 1.5-1.8 2.7l-0.1-3c0-0.2 0-0.3-0.1-0.3 -0.1-0.1-0.2-0.1-0.3-0.1l-0.7 0 0 14 1.2 0 0-0.2Zm-8.7-12.8c0.5 0.2 1 0.5 1.3 0.9 0.4 0.4 0.7 0.9 0.9 1.5 0.2 0.6 0.3 1.3 0.3 2l-9.2 0c0.1-0.7 0.3-1.4 0.5-2 0.3-0.6 0.6-1.1 1-1.5 0.4-0.4 0.9-0.7 1.5-1 0.6-0.2 1.2-0.3 1.9-0.3 0.7 0 1.3 0.1 1.8 0.4m-4.4-0.8c-0.8 0.3-1.4 0.8-2 1.4 -0.5 0.6-1 1.3-1.2 2.2 -0.3 0.8-0.4 1.8-0.4 2.8 0 1.2 0.2 2.2 0.5 3.2 0.3 0.9 0.7 1.7 1.3 2.3 0.6 0.6 1.2 1.1 2 1.5 0.8 0.3 1.7 0.5 2.6 0.5 0.5 0 1-0.1 1.6-0.2 0.5-0.1 1-0.2 1.5-0.4 0.5-0.2 0.9-0.4 1.2-0.6 0.4-0.2 0.7-0.5 0.9-0.8l-0.4-0.5c-0.1-0.1-0.2-0.1-0.3-0.1 -0.1 0-0.2 0.1-0.5 0.2 -0.2 0.2-0.5 0.3-0.8 0.5 -0.4 0.2-0.8 0.4-1.3 0.5 -0.5 0.2-1.1 0.2-1.8 0.2 -0.8 0-1.5-0.1-2.1-0.4 -0.6-0.3-1.2-0.7-1.6-1.2 -0.5-0.5-0.8-1.2-1-2 -0.2-0.8-0.4-1.7-0.4-2.8l0-0.3 10.1 0c0.1 0 0.2 0 0.3-0.1 0.1-0.1 0.1-0.2 0.1-0.4 0-1-0.1-1.9-0.4-2.6 -0.3-0.8-0.7-1.4-1.2-1.9 -0.5-0.5-1.1-0.9-1.7-1.2 -0.7-0.3-1.4-0.4-2.2-0.4 -1.1 0-2 0.2-2.8 0.6m-6.8 0.9c-0.6-0.5-1.2-0.9-1.8-1.1 -0.7-0.2-1.4-0.4-2.3-0.4 -0.7 0-1.4 0.1-1.9 0.3 -0.6 0.2-1.1 0.5-1.5 0.8 -0.4 0.3-0.7 0.7-0.9 1.2 -0.2 0.5-0.3 0.9-0.3 1.4 0 0.6 0.1 1.1 0.3 1.5 0.2 0.4 0.5 0.7 0.9 1 0.4 0.3 0.8 0.5 1.2 0.7 0.5 0.2 0.9 0.3 1.4 0.5 0.5 0.1 1 0.3 1.4 0.4 0.5 0.2 0.9 0.3 1.2 0.5 0.4 0.2 0.7 0.5 0.9 0.8 0.2 0.3 0.3 0.7 0.3 1.2 0 0.4-0.1 0.8-0.2 1.2 -0.2 0.4-0.4 0.7-0.7 1 -0.3 0.3-0.7 0.5-1.1 0.7 -0.5 0.2-1 0.2-1.6 0.2 -0.6 0-1.2-0.1-1.6-0.2 -0.4-0.2-0.8-0.3-1.1-0.5 -0.3-0.2-0.5-0.3-0.7-0.5 -0.2-0.1-0.3-0.2-0.5-0.2 -0.1 0-0.2 0-0.2 0.1 -0.1 0-0.1 0.1-0.2 0.2l-0.3 0.5c0.6 0.5 1.2 0.9 1.9 1.2 0.7 0.3 1.6 0.5 2.5 0.5 0.8 0 1.5-0.1 2.1-0.3 0.6-0.2 1.1-0.5 1.5-0.9 0.4-0.4 0.7-0.8 1-1.4 0.2-0.5 0.3-1.1 0.3-1.7 0-0.6-0.1-1-0.3-1.4 -0.2-0.4-0.5-0.7-0.9-1 -0.4-0.3-0.8-0.5-1.2-0.7 -0.5-0.2-0.9-0.4-1.4-0.5 -0.5-0.2-1-0.3-1.4-0.5 -0.5-0.1-0.9-0.3-1.2-0.5 -0.4-0.2-0.7-0.5-0.9-0.7 -0.2-0.3-0.3-0.7-0.3-1.1 0-0.4 0.1-0.7 0.2-1 0.2-0.3 0.4-0.6 0.7-0.8 0.3-0.2 0.7-0.4 1.1-0.6 0.4-0.1 0.9-0.2 1.4-0.2 0.6 0 1 0.1 1.4 0.2 0.4 0.1 0.7 0.2 1 0.4 0.3 0.1 0.5 0.3 0.6 0.4 0.2 0.1 0.3 0.2 0.4 0.2 0.1 0 0.2-0.1 0.3-0.2l0.5-0.7Zm-22.9 11.2c-0.8-0.3-1.4-0.8-1.9-1.4 -0.5-0.6-0.9-1.3-1.2-2.1 -0.3-0.8-0.4-1.7-0.4-2.6l0-12.3 -1.4 0 0 12.3c0 1.1 0.2 2.1 0.5 3.1 0.3 1 0.8 1.8 1.5 2.5 0.7 0.7 1.4 1.3 2.4 1.7 0.9 0.4 2 0.6 3.1 0.6 1.2 0 2.2-0.2 3.1-0.6 0.9-0.4 1.7-1 2.4-1.7 0.7-0.7 1.1-1.5 1.5-2.5 0.3-1 0.5-2 0.5-3.1l0-12.3 -1.4 0 0 12.3c0 0.9-0.1 1.8-0.4 2.6 -0.3 0.8-0.7 1.5-1.2 2.1 -0.5 0.6-1.2 1.1-1.9 1.4 -0.8 0.3-1.6 0.5-2.6 0.5 -1 0-1.9-0.2-2.6-0.5m-24.8-0.8c-0.8-1-1.2-2.5-1.2-4.6 0-0.9 0.1-1.8 0.3-2.5 0.2-0.8 0.5-1.4 0.9-2 0.4-0.5 0.9-1 1.6-1.3 0.6-0.3 1.3-0.5 2.2-0.5 0.8 0 1.6 0.2 2.2 0.5 0.7 0.3 1.3 0.9 1.8 1.7l0 7.4c-0.6 0.9-1.3 1.5-2 2 -0.8 0.5-1.6 0.7-2.5 0.7 -1.4 0-2.5-0.4-3.3-1.4m9.2 2.3l0-20.4 -1.3 0 0 8.3c-0.5-0.7-1.1-1.2-1.8-1.5 -0.7-0.4-1.5-0.5-2.5-0.5 -1 0-1.9 0.2-2.6 0.6 -0.8 0.4-1.4 0.9-1.9 1.5 -0.5 0.7-0.9 1.4-1.2 2.3 -0.3 0.9-0.4 1.8-0.4 2.9 0 2.4 0.5 4.2 1.4 5.4 1 1.2 2.3 1.8 4 1.8 1 0 2-0.2 2.8-0.7 0.8-0.5 1.6-1.2 2.2-2l0.1 2.2c0 0.2 0.2 0.4 0.4 0.4l0.8 0 0-0.3Zm-24.8 0l0-10.5c0.6-0.8 1.3-1.5 2.1-1.9 0.8-0.5 1.6-0.7 2.6-0.7 1.2 0 2.2 0.4 2.8 1.1 0.6 0.7 0.9 1.8 0.9 3.1l0 8.9 1.3 0 0-8.9c0-0.8-0.1-1.5-0.3-2.2 -0.2-0.6-0.5-1.2-0.9-1.7 -0.4-0.5-0.9-0.8-1.5-1.1 -0.6-0.2-1.3-0.4-2-0.4 -1 0-2 0.2-2.8 0.7 -0.8 0.5-1.6 1.1-2.2 1.9l-0.1-2.1c0-0.2-0.2-0.4-0.4-0.4l-0.7 0 0 14 1.2 0 0 0.2Zm-16.9-13.9l0 8.9c0 0.8 0.1 1.5 0.3 2.2 0.2 0.6 0.5 1.2 0.9 1.7 0.4 0.5 0.9 0.8 1.4 1.1 0.6 0.2 1.3 0.4 2 0.4 1 0 2-0.2 2.8-0.7 0.8-0.5 1.6-1.1 2.2-1.9l0.1 2.1c0 0.2 0.1 0.4 0.4 0.4l0.7 0 0-14 -1.3 0 0 10.5c-0.6 0.8-1.3 1.5-2.1 1.9 -0.8 0.5-1.6 0.7-2.6 0.7 -1.2 0-2.1-0.4-2.7-1.1 -0.6-0.7-0.9-1.8-0.9-3.1l0-8.9 -1.2 0 0-0.2Z" style="fill-rule:nonzero;fill:#1d1d1b"/>
    <path d="M667.4 130.1l-1 0c-0.1 0-0.2 0-0.3 0.1 -0.1 0.1-0.2 0.1-0.2 0.2l-4.6 10.9c-0.1 0.1-0.1 0.3-0.2 0.4 -0.1 0.1-0.1 0.3-0.1 0.4 0-0.2-0.1-0.3-0.1-0.4 0-0.1-0.1-0.3-0.1-0.4l-4.7-10.9c0-0.1-0.1-0.2-0.2-0.2 -0.1-0.1-0.2-0.1-0.3-0.1l-1.1 0 5.9 13.5 -2.5 5.5 1 0c0.2 0 0.3 0 0.4-0.1 0.1-0.1 0.2-0.2 0.2-0.3l7.9-18.6Zm-16.3 13.8c0.5-0.2 1-0.6 1.4-0.9l-0.4-0.6c-0.1-0.1-0.2-0.1-0.2-0.1 -0.1 0-0.2 0-0.3 0.1 -0.1 0.1-0.3 0.2-0.4 0.3 -0.2 0.1-0.4 0.2-0.6 0.3 -0.2 0.1-0.5 0.1-0.9 0.1 -0.3 0-0.5 0-0.8-0.1 -0.2-0.1-0.4-0.2-0.6-0.4 -0.2-0.2-0.3-0.4-0.4-0.7 -0.1-0.3-0.1-0.6-0.1-1l0-9.5 4.4 0 0-1 -4.4 0 0-5.3 -0.6 0c-0.1 0-0.2 0-0.2 0.1 -0.1 0.1-0.1 0.1-0.1 0.2l-0.3 5 -2.4 0.2 0 0.5c0 0.1 0 0.2 0.1 0.2 0.1 0.1 0.2 0.1 0.3 0.1l2 0 0 9.6c0 1.1 0.3 1.9 0.8 2.4 0.5 0.5 1.3 0.8 2.2 0.8 0.4 0.1 0.9 0 1.5-0.3m-9.9-19.1c-0.1-0.2-0.2-0.3-0.3-0.4 -0.1-0.1-0.2-0.2-0.4-0.3 -0.2-0.1-0.3-0.1-0.5-0.1 -0.2 0-0.3 0-0.5 0.1 -0.2 0.1-0.3 0.2-0.4 0.3 -0.1 0.1-0.2 0.2-0.3 0.4 -0.1 0.2-0.1 0.3-0.1 0.5 0 0.2 0 0.3 0.1 0.5 0.1 0.1 0.2 0.3 0.3 0.4 0.1 0.1 0.2 0.2 0.4 0.3 0.1 0.1 0.3 0.1 0.5 0.1 0.2 0 0.3 0 0.5-0.1 0.2-0.1 0.3-0.2 0.4-0.3 0.1-0.1 0.2-0.2 0.3-0.4 0.1-0.1 0.1-0.3 0.1-0.5 0-0.2-0.1-0.3-0.1-0.5m-1.9 19.3l1.3 0 0-14 -1.3 0 0 14Zm-6.2 0l1.3 0 0-20.4 -1.3 0 0 20.4Zm-4.5-19.3c-0.1-0.2-0.2-0.3-0.3-0.4 -0.1-0.1-0.2-0.2-0.4-0.3 -0.2-0.1-0.3-0.1-0.5-0.1 -0.2 0-0.3 0-0.5 0.1 -0.2 0.1-0.3 0.2-0.4 0.3 -0.1 0.1-0.2 0.2-0.3 0.4 -0.1 0.2-0.1 0.3-0.1 0.5 0 0.2 0 0.3 0.1 0.5 0.1 0.1 0.2 0.3 0.3 0.4 0.1 0.1 0.2 0.2 0.4 0.3 0.2 0.1 0.3 0.1 0.5 0.1 0.2 0 0.3 0 0.5-0.1 0.2-0.1 0.3-0.2 0.4-0.3 0.1-0.1 0.2-0.2 0.3-0.4 0.1-0.1 0.1-0.3 0.1-0.5 0-0.2 0-0.3-0.1-0.5m-1.8 19.3l1.3 0 0-14 -1.3 0 0 14Zm-6.4-11.7c0.8 1 1.2 2.5 1.2 4.6 0 0.9-0.1 1.8-0.3 2.5 -0.2 0.8-0.5 1.4-0.9 2 -0.4 0.5-0.9 1-1.6 1.3 -0.6 0.3-1.3 0.5-2.2 0.5 -0.8 0-1.6-0.2-2.2-0.5 -0.6-0.3-1.2-0.9-1.8-1.7l0-7.4c0.6-0.9 1.3-1.5 2-2 0.7-0.5 1.6-0.7 2.5-0.7 1.4-0.1 2.5 0.4 3.3 1.4m-8.4 11.7c0.2 0 0.3-0.1 0.4-0.4l0.1-1.7c0.5 0.7 1.1 1.3 1.8 1.7 0.7 0.4 1.5 0.6 2.5 0.6 1 0 1.9-0.2 2.6-0.6 0.8-0.4 1.4-0.9 1.9-1.5 0.5-0.7 0.9-1.4 1.2-2.3 0.3-0.9 0.4-1.8 0.4-2.9 0-2.4-0.5-4.2-1.4-5.3 -1-1.2-2.3-1.8-4-1.8 -1 0-1.9 0.2-2.8 0.7 -0.8 0.5-1.5 1.1-2.1 2l0-8.9 -1.3 0 0 20.4 0.7 0Zm-12.4-0.9c-0.3-0.1-0.6-0.3-0.9-0.5 -0.3-0.2-0.5-0.5-0.6-0.8 -0.2-0.3-0.2-0.7-0.2-1.2 0-0.5 0.1-0.9 0.4-1.3 0.3-0.4 0.8-0.7 1.4-1 0.6-0.3 1.4-0.5 2.4-0.7 1-0.2 2.1-0.3 3.4-0.3l0 3.6c-0.3 0.3-0.7 0.7-1 0.9 -0.3 0.3-0.7 0.5-1.1 0.8 -0.4 0.2-0.8 0.4-1.3 0.5 -0.5 0.1-1 0.2-1.5 0.2 -0.3-0.1-0.6-0.1-1-0.2m7.2 0.9l0-9.1c0-0.8-0.1-1.5-0.3-2.1 -0.2-0.6-0.5-1.2-0.8-1.6 -0.4-0.4-0.8-0.8-1.4-1 -0.6-0.2-1.2-0.4-2-0.4 -1 0-1.9 0.2-2.7 0.6 -0.8 0.4-1.6 0.9-2.3 1.7l0.2 0.4c0.1 0.2 0.2 0.3 0.4 0.3 0.1 0 0.3-0.1 0.5-0.3 0.2-0.2 0.5-0.4 0.8-0.6 0.3-0.2 0.7-0.4 1.2-0.6 0.5-0.2 1-0.3 1.7-0.3 1.1 0 1.9 0.4 2.5 1 0.6 0.7 0.8 1.7 0.8 3l0 1.5c-1.6 0-2.9 0.2-4.1 0.4 -1.1 0.2-2.1 0.5-2.8 0.9 -0.7 0.4-1.2 0.8-1.6 1.3 -0.3 0.5-0.5 1.1-0.5 1.6 0 0.6 0.1 1.2 0.3 1.6 0.2 0.5 0.5 0.8 0.8 1.1 0.3 0.3 0.7 0.5 1.2 0.6 0.5 0.1 0.9 0.2 1.4 0.2 0.6 0 1.1-0.1 1.6-0.2 0.5-0.1 0.9-0.3 1.3-0.5 0.4-0.2 0.8-0.5 1.2-0.8 0.4-0.3 0.8-0.6 1.1-1l0.2 1.8c0.1 0.3 0.2 0.4 0.5 0.4l0.8 0 0 0.1Zm-13.6-12.7c-0.6-0.5-1.2-0.9-1.8-1.1 -0.7-0.2-1.4-0.4-2.3-0.4 -0.7 0-1.4 0.1-1.9 0.3 -0.6 0.2-1.1 0.5-1.5 0.8 -0.4 0.3-0.7 0.8-0.9 1.2 -0.2 0.5-0.3 0.9-0.3 1.4 0 0.6 0.1 1.1 0.3 1.5 0.2 0.4 0.5 0.7 0.9 1 0.4 0.3 0.8 0.5 1.2 0.7 0.5 0.2 0.9 0.3 1.4 0.5 0.5 0.2 1 0.3 1.4 0.4 0.5 0.2 0.9 0.3 1.2 0.5 0.4 0.2 0.7 0.5 0.9 0.8 0.2 0.3 0.3 0.7 0.3 1.2 0 0.4-0.1 0.8-0.2 1.2 -0.2 0.4-0.4 0.7-0.7 1 -0.3 0.3-0.7 0.5-1.1 0.7 -0.4 0.2-1 0.2-1.6 0.2 -0.6 0-1.2-0.1-1.6-0.2 -0.4-0.2-0.8-0.3-1.1-0.5 -0.3-0.2-0.5-0.3-0.7-0.5 -0.2-0.2-0.3-0.2-0.4-0.2 -0.1 0-0.2 0-0.2 0.1 -0.1 0-0.1 0.1-0.2 0.2l-0.3 0.5c0.6 0.5 1.2 0.9 1.9 1.2 0.7 0.3 1.6 0.5 2.5 0.5 0.8 0 1.5-0.1 2.1-0.3 0.6-0.2 1.1-0.5 1.5-0.9 0.4-0.4 0.7-0.8 1-1.4 0.2-0.5 0.3-1.1 0.3-1.7 0-0.6-0.1-1-0.3-1.4 -0.2-0.4-0.5-0.7-0.9-1 -0.4-0.3-0.8-0.5-1.2-0.7 -0.5-0.2-0.9-0.3-1.4-0.5 -0.5-0.2-1-0.3-1.4-0.4 -0.5-0.2-0.9-0.3-1.2-0.5 -0.4-0.2-0.7-0.5-0.9-0.7 -0.2-0.3-0.3-0.7-0.3-1.1 0-0.4 0.1-0.7 0.2-1 0.2-0.3 0.4-0.6 0.7-0.8 0.3-0.2 0.7-0.4 1.1-0.6 0.4-0.1 0.9-0.2 1.4-0.2 0.6 0 1 0.1 1.4 0.2 0.4 0.1 0.7 0.2 1 0.4 0.3 0.1 0.5 0.3 0.6 0.4 0.2 0.1 0.3 0.2 0.4 0.2 0.1 0 0.2-0.1 0.3-0.2l0.4-0.8Zm-22.9 11.1c-0.8-0.3-1.4-0.8-1.9-1.4 -0.5-0.6-0.9-1.3-1.2-2.1 -0.3-0.8-0.4-1.7-0.4-2.6l0-12.3 -1.4 0 0 12.3c0 1.1 0.2 2.1 0.5 3.1 0.3 1 0.8 1.8 1.5 2.5 0.7 0.7 1.4 1.3 2.4 1.7 0.9 0.4 2 0.6 3.1 0.6 1.2 0 2.2-0.2 3.1-0.6 0.9-0.4 1.7-1 2.4-1.7 0.7-0.7 1.2-1.5 1.5-2.5 0.3-1 0.5-2 0.5-3.1l0-12.3 -1.4 0 0 12.3c0 0.9-0.1 1.8-0.4 2.6 -0.3 0.8-0.7 1.5-1.2 2.1 -0.5 0.6-1.2 1.1-1.9 1.4 -0.8 0.3-1.6 0.5-2.6 0.5 -1 0-1.9-0.1-2.6-0.5m-24.8 1.6l0-10.5c0.6-0.8 1.3-1.5 2.1-1.9 0.8-0.5 1.6-0.7 2.6-0.7 1.2 0 2.2 0.4 2.8 1.1 0.6 0.7 0.9 1.8 0.9 3.1l0 8.9 1.3 0 0-8.9c0-0.8-0.1-1.5-0.3-2.2 -0.2-0.6-0.5-1.2-0.9-1.7 -0.4-0.5-0.9-0.8-1.5-1.1 -0.6-0.2-1.3-0.4-2-0.4 -1 0-2 0.2-2.8 0.7 -0.8 0.5-1.6 1.1-2.2 1.9l-0.1-2.1c0-0.2-0.2-0.4-0.4-0.4l-0.7 0 0 14 1.2 0 0 0.2Zm-8.6-12.9c0.5 0.2 1 0.5 1.3 0.9 0.4 0.4 0.7 0.9 0.9 1.5 0.2 0.6 0.3 1.3 0.3 2l-9.2 0c0.1-0.7 0.3-1.4 0.5-2 0.3-0.6 0.6-1.1 1-1.5 0.4-0.4 0.9-0.7 1.5-1 0.6-0.2 1.2-0.3 1.9-0.3 0.7 0.1 1.2 0.2 1.8 0.4m-4.4-0.8c-0.8 0.3-1.4 0.8-2 1.4 -0.5 0.6-1 1.3-1.2 2.2 -0.3 0.8-0.4 1.8-0.4 2.8 0 1.2 0.2 2.2 0.5 3.2 0.3 0.9 0.7 1.7 1.3 2.3 0.6 0.6 1.2 1.1 2 1.5 0.8 0.3 1.7 0.5 2.6 0.5 0.5 0 1-0.1 1.6-0.2 0.5-0.1 1-0.2 1.5-0.4 0.5-0.2 0.9-0.4 1.2-0.6 0.4-0.2 0.7-0.5 0.9-0.8l-0.4-0.5c-0.1-0.1-0.2-0.1-0.3-0.1 -0.1 0-0.2 0.1-0.5 0.2 -0.2 0.2-0.5 0.3-0.8 0.5 -0.4 0.2-0.8 0.4-1.3 0.5 -0.5 0.2-1.1 0.2-1.8 0.2 -0.8 0-1.5-0.1-2.1-0.4 -0.6-0.3-1.2-0.7-1.6-1.2 -0.5-0.5-0.8-1.2-1-2 -0.2-0.8-0.4-1.7-0.4-2.8l0-0.3 10.1 0c0.1 0 0.2 0 0.3-0.1 0.1-0.1 0.1-0.2 0.1-0.4 0-1-0.1-1.9-0.4-2.6 -0.3-0.8-0.7-1.4-1.2-1.9 -0.5-0.5-1.1-0.9-1.7-1.2 -0.7-0.3-1.4-0.4-2.2-0.4 -1.2 0.1-2.1 0.2-2.8 0.6m-16.8 13.7l0-10.5c0.6-0.8 1.3-1.5 2.1-1.9 0.8-0.5 1.6-0.7 2.6-0.7 1.2 0 2.2 0.4 2.8 1.1 0.6 0.7 0.9 1.8 0.9 3.1l0 8.9 1.3 0 0-8.9c0-0.8-0.1-1.5-0.3-2.2 -0.2-0.6-0.5-1.2-0.9-1.7 -0.4-0.5-0.9-0.8-1.5-1.1 -0.6-0.2-1.3-0.4-2-0.4 -1 0-2 0.2-2.8 0.7 -0.8 0.5-1.6 1.1-2.2 1.9l0-8.9 -1.3 0 0 20.4 1.3 0 0 0.2Zm-4.7-12.6c-0.5-0.5-1.1-0.9-1.8-1.2 -0.7-0.3-1.5-0.4-2.4-0.4 -1 0-1.9 0.2-2.7 0.5 -0.8 0.4-1.4 0.8-2 1.5 -0.5 0.6-0.9 1.4-1.2 2.3 -0.3 0.9-0.4 1.9-0.4 2.9 0 1.1 0.1 2.1 0.4 3 0.3 0.9 0.7 1.6 1.2 2.3 0.5 0.6 1.2 1.1 1.9 1.4 0.7 0.3 1.5 0.5 2.4 0.5 0.5 0 1 0 1.5-0.1 0.5-0.1 0.9-0.2 1.3-0.4 0.4-0.2 0.8-0.4 1.1-0.6 0.3-0.2 0.6-0.5 0.8-0.8l-0.4-0.5c-0.1-0.1-0.2-0.1-0.3-0.1 -0.1 0-0.2 0.1-0.4 0.2 -0.2 0.2-0.4 0.3-0.7 0.5 -0.3 0.2-0.7 0.4-1.1 0.5 -0.5 0.2-1 0.2-1.7 0.2 -0.7 0-1.4-0.1-2-0.4 -0.6-0.3-1.1-0.7-1.5-1.2 -0.4-0.5-0.7-1.2-1-1.9 -0.2-0.8-0.3-1.6-0.3-2.6 0-0.9 0.1-1.8 0.3-2.6 0.2-0.8 0.5-1.4 1-1.9 0.4-0.5 1-0.9 1.6-1.2 0.6-0.3 1.3-0.4 2.1-0.4 0.6 0 1.1 0.1 1.5 0.2 0.4 0.1 0.7 0.3 1 0.4 0.3 0.2 0.5 0.3 0.7 0.4 0.2 0.1 0.3 0.2 0.4 0.2 0.1 0 0.1 0 0.2-0.1l0.1-0.1 0.4-0.5Zm-13.8-0.1c-0.6-0.5-1.2-0.9-1.8-1.1 -0.7-0.2-1.4-0.4-2.3-0.4 -0.7 0-1.4 0.1-1.9 0.3 -0.6 0.2-1.1 0.5-1.5 0.8 -0.4 0.3-0.7 0.8-0.9 1.2 -0.2 0.5-0.3 0.9-0.3 1.4 0 0.6 0.1 1.1 0.3 1.5 0.2 0.4 0.5 0.7 0.9 1 0.4 0.3 0.8 0.5 1.2 0.7 0.5 0.2 0.9 0.3 1.4 0.5 0.5 0.2 1 0.3 1.4 0.4 0.5 0.2 0.9 0.3 1.2 0.5 0.4 0.2 0.7 0.5 0.9 0.8 0.2 0.3 0.3 0.7 0.3 1.2 0 0.4-0.1 0.8-0.2 1.2 -0.2 0.4-0.4 0.7-0.7 1 -0.3 0.3-0.7 0.5-1.1 0.7 -0.5 0.2-1 0.2-1.6 0.2 -0.6 0-1.2-0.1-1.6-0.2 -0.4-0.2-0.8-0.3-1.1-0.5 -0.3-0.2-0.5-0.3-0.7-0.5 -0.2-0.2-0.3-0.2-0.5-0.2 -0.1 0-0.2 0-0.2 0.1 -0.1 0-0.1 0.1-0.2 0.2l-0.3 0.5c0.6 0.5 1.2 0.9 1.9 1.2 0.7 0.3 1.6 0.5 2.5 0.5 0.8 0 1.5-0.1 2.1-0.3 0.6-0.2 1.1-0.5 1.5-0.9 0.4-0.4 0.7-0.8 1-1.4 0.2-0.5 0.3-1.1 0.3-1.7 0-0.6-0.1-1-0.3-1.4 -0.2-0.4-0.5-0.7-0.9-1 -0.4-0.3-0.8-0.5-1.2-0.7 -0.5-0.2-0.9-0.3-1.4-0.5 -0.5-0.2-1-0.3-1.4-0.4 -0.5-0.2-0.9-0.3-1.2-0.5 -0.4-0.2-0.7-0.5-0.9-0.7 -0.2-0.3-0.3-0.7-0.3-1.1 0-0.4 0.1-0.7 0.2-1 0.2-0.3 0.4-0.6 0.7-0.8 0.3-0.2 0.7-0.4 1.1-0.6 0.4-0.1 0.9-0.2 1.4-0.2 0.6 0 1 0.1 1.4 0.2 0.4 0.1 0.7 0.2 1 0.4 0.3 0.1 0.5 0.3 0.6 0.4 0.2 0.1 0.3 0.2 0.4 0.2 0.1 0 0.2-0.1 0.3-0.2l0.5-0.8Zm-13 12.5c0.5-0.2 1-0.6 1.4-0.9l-0.4-0.6c-0.1-0.1-0.2-0.1-0.2-0.1 -0.1 0-0.2 0-0.3 0.1 -0.1 0.1-0.3 0.2-0.4 0.3 -0.2 0.1-0.4 0.2-0.6 0.3 -0.2 0.1-0.5 0.1-0.9 0.1 -0.3 0-0.5 0-0.8-0.1 -0.2-0.1-0.4-0.2-0.6-0.4 -0.2-0.2-0.3-0.4-0.4-0.7 -0.1-0.3-0.1-0.6-0.1-1l0-9.5 4.4 0 0-1 -4.4 0 0-5.3 -0.6 0c-0.1 0-0.2 0-0.2 0.1 -0.1 0.1-0.1 0.1-0.1 0.2l-0.3 5 -2.4 0.2 0 0.5c0 0.1 0 0.2 0.1 0.2 0.1 0.1 0.2 0.1 0.3 0.1l2 0 0 9.6c0 1.1 0.3 1.9 0.8 2.4 0.5 0.5 1.3 0.8 2.2 0.8 0.4 0.1 0.9 0 1.5-0.3m-21.2-13.8l0 8.9c0 0.8 0.1 1.5 0.3 2.2 0.2 0.6 0.5 1.2 0.9 1.7 0.4 0.5 0.9 0.8 1.4 1.1 0.6 0.2 1.3 0.4 2 0.4 1 0 2-0.2 2.8-0.7 0.8-0.5 1.6-1.1 2.2-1.9l0.1 2.1c0 0.2 0.1 0.4 0.4 0.4l0.7 0 0-14 -1.3 0 0 10.5c-0.6 0.8-1.3 1.5-2.1 1.9 -0.8 0.5-1.6 0.7-2.6 0.7 -1.2 0-2.1-0.4-2.7-1.1 -0.6-0.7-0.9-1.8-0.9-3.1l0-8.9 -1.2 0 0-0.2Zm-7 1.1c0.5 0.2 1 0.5 1.3 0.9 0.4 0.4 0.7 0.9 0.9 1.5 0.2 0.6 0.3 1.3 0.3 2l-9.2 0c0.1-0.7 0.3-1.4 0.5-2 0.3-0.6 0.6-1.1 1-1.5 0.4-0.4 0.9-0.7 1.5-1 0.6-0.2 1.2-0.3 1.9-0.3 0.7 0.1 1.2 0.2 1.8 0.4m-4.5-0.8c-0.8 0.3-1.4 0.8-2 1.4 -0.5 0.6-1 1.3-1.2 2.2 -0.3 0.8-0.4 1.8-0.4 2.8 0 1.2 0.2 2.2 0.5 3.2 0.3 0.9 0.7 1.7 1.3 2.3 0.6 0.6 1.2 1.1 2 1.5 0.8 0.3 1.7 0.5 2.6 0.5 0.5 0 1-0.1 1.6-0.2 0.5-0.1 1-0.2 1.5-0.4 0.5-0.2 0.9-0.4 1.2-0.6 0.4-0.2 0.7-0.5 0.9-0.8l-0.4-0.5c-0.1-0.1-0.2-0.1-0.3-0.1 -0.1 0-0.2 0.1-0.4 0.2 -0.2 0.2-0.5 0.3-0.8 0.5 -0.4 0.2-0.8 0.4-1.3 0.5 -0.5 0.2-1.1 0.2-1.8 0.2 -0.8 0-1.5-0.1-2.1-0.4 -0.6-0.3-1.2-0.7-1.6-1.2 -0.5-0.5-0.8-1.2-1-2 -0.2-0.8-0.4-1.7-0.4-2.8l0-0.3 10.1 0c0.1 0 0.2 0 0.3-0.1 0.1-0.1 0.1-0.2 0.1-0.4 0-1-0.1-1.9-0.4-2.6 -0.3-0.7-0.7-1.4-1.2-1.9 -0.5-0.5-1.1-0.9-1.7-1.2 -0.7-0.3-1.4-0.4-2.2-0.4 -1.2 0.1-2.1 0.2-2.9 0.6m-9 7.5c-0.4 1.1-0.9 2-1.6 2.8 -0.7 0.7-1.5 1.3-2.5 1.7 -1 0.4-2.1 0.6-3.3 0.6l-5.8 0 0-17.5 5.8 0c1.2 0 2.3 0.2 3.3 0.6 1 0.4 1.8 1 2.5 1.7 0.7 0.8 1.2 1.7 1.6 2.8 0.4 1.1 0.6 2.3 0.6 3.7 -0.1 1.2-0.2 2.5-0.6 3.6m1.3-7.9c-0.5-1.2-1.1-2.3-1.9-3.1 -0.8-0.9-1.8-1.5-3-2 -1.2-0.5-2.4-0.7-3.9-0.7l-7.3 0 0 19.9 7.3 0c1.4 0 2.7-0.2 3.9-0.7 1.2-0.5 2.2-1.1 3-2 0.8-0.9 1.5-1.9 1.9-3.1 0.5-1.2 0.7-2.6 0.7-4.1 0-1.6-0.2-3-0.7-4.2m-31.9 14.1l0-9.1c0.4-1.2 1-2.2 1.7-2.8 0.7-0.7 1.5-1 2.6-1 0.3 0 0.5 0 0.8 0.1 0.2 0 0.4 0.1 0.6 0.1 0.2 0 0.3 0.1 0.4 0.1 0.1 0 0.2 0.1 0.2 0.1 0.2 0 0.3-0.1 0.3-0.2l0.2-0.9c-0.3-0.2-0.7-0.3-1-0.4 -0.4-0.1-0.7-0.1-1.2-0.1 -1.1 0-2 0.3-2.8 1 -0.7 0.6-1.3 1.5-1.8 2.7l-0.1-2.9c0-0.2-0.1-0.3-0.1-0.3 -0.1-0.1-0.2-0.1-0.3-0.1l-0.7 0 0 14 1.2 0 0-0.3Zm-8.7-12.9c0.5 0.2 1 0.5 1.3 0.9 0.4 0.4 0.7 0.9 0.9 1.5 0.2 0.6 0.3 1.3 0.3 2l-9.2 0c0.1-0.7 0.3-1.4 0.5-2 0.3-0.6 0.6-1.1 1-1.5 0.4-0.4 0.9-0.7 1.5-1 0.6-0.2 1.2-0.3 1.9-0.3 0.7 0.1 1.3 0.2 1.8 0.4m-4.4-0.8c-0.8 0.3-1.4 0.8-2 1.4 -0.5 0.6-0.9 1.3-1.2 2.2 -0.3 0.8-0.4 1.8-0.4 2.8 0 1.2 0.2 2.2 0.5 3.2 0.3 0.9 0.7 1.7 1.3 2.3 0.6 0.6 1.2 1.1 2 1.5 0.8 0.3 1.7 0.5 2.6 0.5 0.5 0 1-0.1 1.6-0.2 0.6-0.1 1-0.2 1.5-0.4 0.5-0.2 0.9-0.4 1.2-0.6 0.4-0.2 0.7-0.5 0.9-0.8l-0.4-0.5c-0.1-0.1-0.2-0.1-0.3-0.1 -0.1 0-0.2 0.1-0.4 0.2 -0.2 0.2-0.5 0.3-0.8 0.5 -0.4 0.2-0.8 0.4-1.3 0.5 -0.5 0.2-1.1 0.2-1.8 0.2 -0.8 0-1.5-0.1-2.1-0.4 -0.6-0.3-1.2-0.7-1.6-1.2 -0.4-0.5-0.8-1.2-1-2 -0.2-0.8-0.4-1.7-0.4-2.8l0-0.3 10.1 0c0.1 0 0.2 0 0.3-0.1 0.1-0.1 0.1-0.2 0.1-0.4 0-1-0.1-1.9-0.4-2.6 -0.3-0.8-0.7-1.4-1.2-1.9 -0.5-0.5-1.1-0.9-1.7-1.2 -0.7-0.3-1.4-0.4-2.2-0.4 -1.2 0.1-2.1 0.2-2.9 0.6m-16.6 11.3c-0.8-1-1.2-2.5-1.2-4.6 0-0.9 0.1-1.8 0.3-2.5 0.2-0.8 0.5-1.4 0.9-2 0.4-0.5 0.9-1 1.6-1.3 0.6-0.3 1.3-0.5 2.2-0.5 0.8 0 1.6 0.2 2.2 0.5 0.7 0.3 1.3 0.9 1.8 1.7l0 7.4c-0.6 0.9-1.3 1.5-2 2 -0.8 0.5-1.6 0.7-2.5 0.7 -1.4 0.1-2.5-0.4-3.3-1.4m9.2 2.4l0-20.4 -1.3 0 0 8.3c-0.5-0.7-1.1-1.2-1.8-1.5 -0.7-0.4-1.5-0.5-2.5-0.5 -1 0-1.9 0.2-2.6 0.6 -0.8 0.4-1.4 0.9-1.9 1.5 -0.5 0.7-0.9 1.4-1.2 2.3 -0.3 0.9-0.4 1.8-0.4 2.9 0 2.4 0.5 4.2 1.4 5.4 1 1.2 2.3 1.8 4 1.8 1 0 2-0.2 2.8-0.7 0.8-0.5 1.6-1.2 2.2-2l0.1 2.2c0 0.2 0.2 0.4 0.4 0.4l0.8 0 0-0.3Zm-29.9-2.4c-0.8-1-1.2-2.5-1.2-4.6 0-0.9 0.1-1.8 0.3-2.5 0.2-0.8 0.5-1.4 0.9-2 0.4-0.5 0.9-1 1.6-1.3 0.6-0.3 1.3-0.5 2.2-0.5 0.9 0 1.6 0.2 2.2 0.5 0.7 0.3 1.2 0.9 1.8 1.7l0 7.4c-0.6 0.9-1.3 1.5-2 2 -0.8 0.5-1.6 0.7-2.5 0.7 -1.5 0.1-2.6-0.4-3.3-1.4m9.1 2.4l0-20.4 -1.3 0 0 8.3c-0.5-0.7-1.1-1.2-1.8-1.5 -0.7-0.4-1.5-0.5-2.5-0.5 -1 0-1.9 0.2-2.6 0.6 -0.8 0.4-1.4 0.9-1.9 1.5 -0.5 0.7-0.9 1.4-1.2 2.3 -0.3 0.9-0.4 1.8-0.4 2.9 0 2.4 0.5 4.2 1.4 5.4 1 1.2 2.3 1.8 4 1.8 1 0 2-0.2 2.8-0.7 0.8-0.5 1.6-1.2 2.2-2l0.1 2.2c0 0.2 0.2 0.4 0.4 0.4l0.8 0 0-0.3Zm-24.8 0l0-10.5c0.6-0.8 1.3-1.5 2.1-1.9 0.8-0.5 1.6-0.7 2.6-0.7 1.2 0 2.2 0.4 2.8 1.1 0.6 0.7 0.9 1.8 0.9 3.1l0 8.9 1.3 0 0-8.9c0-0.8-0.1-1.5-0.3-2.2 -0.2-0.6-0.5-1.2-0.9-1.7 -0.4-0.5-0.9-0.8-1.5-1.1 -0.6-0.2-1.3-0.4-2-0.4 -1 0-2 0.2-2.8 0.7 -0.8 0.5-1.6 1.1-2.2 1.9l-0.1-2.1c0-0.2-0.2-0.4-0.4-0.4l-0.7 0 0 14 1.2 0 0 0.2Zm-12.8-0.9c-0.3-0.1-0.6-0.3-0.9-0.5 -0.3-0.2-0.5-0.5-0.6-0.8 -0.2-0.3-0.2-0.7-0.2-1.2 0-0.5 0.1-0.9 0.4-1.3 0.3-0.4 0.8-0.7 1.4-1 0.6-0.3 1.4-0.5 2.4-0.7 1-0.2 2.1-0.3 3.4-0.3l0 3.6c-0.3 0.3-0.7 0.7-1 0.9 -0.3 0.3-0.7 0.5-1.1 0.8 -0.4 0.2-0.8 0.4-1.3 0.5 -0.5 0.1-1 0.2-1.5 0.2 -0.3-0.1-0.7-0.1-1-0.2m7.2 0.9l0-9.1c0-0.8-0.1-1.5-0.3-2.1 -0.2-0.6-0.5-1.2-0.8-1.6 -0.4-0.4-0.8-0.8-1.4-1 -0.6-0.2-1.2-0.4-2-0.4 -1 0-1.9 0.2-2.7 0.6 -0.8 0.4-1.6 0.9-2.3 1.7l0.2 0.4c0.1 0.2 0.2 0.3 0.4 0.3 0.1 0 0.3-0.1 0.5-0.3 0.2-0.2 0.5-0.4 0.8-0.6 0.3-0.2 0.7-0.4 1.2-0.6 0.5-0.2 1-0.3 1.7-0.3 1.1 0 1.9 0.4 2.5 1 0.6 0.7 0.8 1.7 0.8 3l0 1.5c-1.6 0-2.9 0.2-4.1 0.4 -1.1 0.2-2.1 0.5-2.8 0.9 -0.7 0.4-1.2 0.8-1.6 1.3 -0.3 0.5-0.5 1.1-0.5 1.6 0 0.6 0.1 1.2 0.3 1.6 0.2 0.5 0.5 0.8 0.8 1.1 0.3 0.3 0.7 0.5 1.2 0.6 0.5 0.1 0.9 0.2 1.4 0.2 0.6 0 1.1-0.1 1.6-0.2 0.5-0.1 0.9-0.3 1.3-0.5 0.4-0.2 0.8-0.5 1.2-0.8 0.4-0.3 0.8-0.6 1.1-1l0.2 1.8c0.1 0.3 0.2 0.4 0.5 0.4l0.8 0 0 0.1Zm-15.6-11.7c0.8 1 1.2 2.5 1.2 4.6 0 0.9-0.1 1.8-0.3 2.5 -0.2 0.8-0.5 1.4-0.9 2 -0.4 0.5-0.9 1-1.6 1.3 -0.6 0.3-1.3 0.5-2.2 0.5 -0.8 0-1.6-0.2-2.2-0.5 -0.6-0.3-1.2-0.9-1.8-1.7l0-7.4c0.6-0.9 1.3-1.5 2-2 0.8-0.5 1.6-0.7 2.5-0.7 1.4-0.1 2.5 0.4 3.3 1.4m-8.4 11.7c0.2 0 0.3-0.1 0.4-0.4l0.1-1.7c0.5 0.7 1.1 1.3 1.8 1.7 0.7 0.4 1.5 0.6 2.5 0.6 1 0 1.9-0.2 2.6-0.6 0.8-0.4 1.4-0.9 1.9-1.5 0.5-0.7 0.9-1.4 1.2-2.3 0.3-0.9 0.4-1.8 0.4-2.9 0-2.4-0.5-4.2-1.4-5.3 -1-1.2-2.3-1.8-4-1.8 -1 0-1.9 0.2-2.8 0.7 -0.8 0.5-1.5 1.1-2.2 2l0-8.9 -1.3 0 0 20.4 0.8 0Zm-10.7 0l0-9.1c0.4-1.2 1-2.2 1.7-2.8 0.7-0.7 1.5-1 2.6-1 0.3 0 0.5 0 0.8 0.1 0.2 0 0.4 0.1 0.6 0.1 0.2 0 0.3 0.1 0.4 0.1 0.1 0 0.2 0.1 0.2 0.1 0.2 0 0.3-0.1 0.3-0.2l0.2-0.9c-0.3-0.2-0.7-0.3-1-0.4 -0.4-0.1-0.7-0.1-1.2-0.1 -1.1 0-2 0.3-2.8 1 -0.7 0.6-1.3 1.5-1.8 2.7l-0.1-2.9c0-0.2 0-0.3-0.1-0.3 -0.1-0.1-0.2-0.1-0.3-0.1l-0.7 0 0 14 1.2 0 0-0.3Zm-8.7-12.9c0.5 0.2 1 0.5 1.3 0.9 0.4 0.4 0.7 0.9 0.9 1.5 0.2 0.6 0.3 1.3 0.3 2l-9.2 0c0.1-0.7 0.3-1.4 0.5-2 0.3-0.6 0.6-1.1 1-1.5 0.4-0.4 0.9-0.7 1.5-1 0.6-0.2 1.2-0.3 1.9-0.3 0.7 0.1 1.3 0.2 1.8 0.4m-4.4-0.8c-0.8 0.3-1.4 0.8-2 1.4 -0.5 0.6-0.9 1.3-1.2 2.2 -0.3 0.8-0.4 1.8-0.4 2.8 0 1.2 0.2 2.2 0.5 3.2 0.3 0.9 0.7 1.7 1.3 2.3 0.6 0.6 1.2 1.1 2 1.5 0.8 0.3 1.7 0.5 2.6 0.5 0.5 0 1-0.1 1.6-0.2 0.6-0.1 1-0.2 1.5-0.4 0.5-0.2 0.9-0.4 1.2-0.6 0.4-0.2 0.7-0.5 0.9-0.8l-0.4-0.5c-0.1-0.1-0.2-0.1-0.3-0.1 -0.1 0-0.2 0.1-0.4 0.2 -0.2 0.2-0.5 0.3-0.8 0.5 -0.4 0.2-0.8 0.4-1.3 0.5 -0.5 0.2-1.1 0.2-1.8 0.2 -0.8 0-1.5-0.1-2.1-0.4 -0.6-0.3-1.2-0.7-1.6-1.2 -0.4-0.5-0.8-1.2-1-2 -0.2-0.8-0.4-1.7-0.4-2.8l0-0.3 10.1 0c0.1 0 0.2 0 0.3-0.1 0.1-0.1 0.1-0.2 0.1-0.4 0-1-0.1-1.9-0.4-2.6 -0.3-0.7-0.7-1.4-1.2-1.9 -0.5-0.5-1.1-0.9-1.7-1.2 -0.7-0.3-1.4-0.4-2.2-0.4 -1.2 0.1-2.1 0.2-2.9 0.6m-5.2-0.3l-1 0c-0.1 0-0.2 0-0.3 0.1 -0.1 0.1-0.1 0.1-0.2 0.2l-4.6 11c-0.1 0.2-0.2 0.4-0.2 0.6 -0.1 0.2-0.1 0.4-0.1 0.6 0-0.2-0.1-0.4-0.1-0.6 0-0.2-0.1-0.4-0.2-0.6l-4.6-11c0-0.1-0.1-0.2-0.2-0.2 -0.1-0.1-0.2-0.1-0.3-0.1l-1.1 0 5.9 14 1.2 0 5.8-14Zm-15.5 1.3c-0.6-0.5-1.2-0.9-1.8-1.1 -0.7-0.2-1.4-0.4-2.3-0.4 -0.7 0-1.4 0.1-1.9 0.3 -0.6 0.2-1.1 0.5-1.5 0.8 -0.4 0.3-0.7 0.8-0.9 1.2 -0.2 0.5-0.3 0.9-0.3 1.4 0 0.6 0.1 1.1 0.3 1.5 0.2 0.4 0.5 0.7 0.9 1 0.4 0.3 0.8 0.5 1.2 0.7 0.5 0.2 0.9 0.3 1.4 0.5 0.5 0.2 1 0.3 1.4 0.4 0.5 0.2 0.9 0.3 1.2 0.5 0.4 0.2 0.7 0.5 0.9 0.8 0.2 0.3 0.3 0.7 0.3 1.2 0 0.4-0.1 0.8-0.2 1.2 -0.2 0.4-0.4 0.7-0.7 1 -0.3 0.3-0.7 0.5-1.1 0.7 -0.4 0.2-1 0.2-1.6 0.2 -0.6 0-1.2-0.1-1.6-0.2 -0.4-0.2-0.8-0.3-1.1-0.5 -0.3-0.2-0.5-0.3-0.7-0.5 -0.2-0.2-0.3-0.2-0.4-0.2 -0.1 0-0.2 0-0.2 0.1 -0.1 0-0.1 0.1-0.2 0.2l-0.3 0.5c0.6 0.5 1.2 0.9 1.9 1.2 0.7 0.3 1.6 0.5 2.5 0.5 0.8 0 1.5-0.1 2.1-0.3 0.6-0.2 1.1-0.5 1.5-0.9 0.4-0.4 0.7-0.8 1-1.4 0.2-0.5 0.3-1.1 0.3-1.7 0-0.6-0.1-1-0.3-1.4 -0.2-0.4-0.5-0.7-0.9-1 -0.4-0.3-0.8-0.5-1.2-0.7 -0.5-0.2-0.9-0.3-1.4-0.5 -0.5-0.2-1-0.3-1.4-0.4 -0.5-0.2-0.9-0.3-1.2-0.5 -0.4-0.2-0.7-0.5-0.9-0.7 -0.2-0.3-0.3-0.7-0.3-1.1 0-0.4 0.1-0.7 0.2-1 0.2-0.3 0.4-0.6 0.7-0.8 0.3-0.2 0.7-0.4 1.1-0.6 0.4-0.1 0.9-0.2 1.4-0.2 0.6 0 1 0.1 1.4 0.2 0.4 0.1 0.7 0.2 1 0.4 0.3 0.1 0.5 0.3 0.6 0.4 0.2 0.1 0.3 0.2 0.4 0.2 0.1 0 0.2-0.1 0.3-0.2l0.4-0.8Zm-15.5 12.7l0-12.5 4.5 0 0-1 -4.5 0 0-1.7c0-0.7 0.1-1.3 0.2-1.8 0.2-0.5 0.4-0.9 0.7-1.2 0.3-0.3 0.6-0.5 1-0.7 0.4-0.1 0.8-0.2 1.3-0.2l1.2 0c0.2 0 0.3-0.1 0.3-0.2l0-0.6c-0.2-0.1-0.5-0.2-0.8-0.2 -0.3-0.1-0.6-0.1-0.9-0.1 -0.6 0-1.2 0.1-1.8 0.3 -0.5 0.2-1 0.5-1.4 0.9 -0.4 0.4-0.7 0.9-0.9 1.5 -0.2 0.6-0.3 1.3-0.3 2.1l0 1.8 -2.4 0 0 0.5c0 0.2 0.1 0.3 0.4 0.4l2 0.1 0 12.5 1.4 0 0 0.1Zm-17.7-14l0 8.9c0 0.8 0.1 1.5 0.3 2.2 0.2 0.6 0.5 1.2 0.9 1.7 0.4 0.5 0.9 0.8 1.4 1.1 0.6 0.2 1.3 0.4 2 0.4 1 0 2-0.2 2.8-0.7 0.8-0.5 1.6-1.1 2.2-1.9l0.1 2.1c0 0.2 0.1 0.4 0.4 0.4l0.7 0 0-14 -1.3 0 0 10.5c-0.6 0.8-1.3 1.5-2.1 1.9 -0.8 0.5-1.6 0.7-2.6 0.7 -1.2 0-2.1-0.4-2.7-1.1 -0.6-0.7-0.9-1.8-0.9-3.1l0-8.9 -1.2 0 0-0.2Zm-9.7 14l0-9.1c0.4-1.2 1-2.2 1.7-2.8 0.7-0.7 1.5-1 2.6-1 0.3 0 0.5 0 0.8 0.1 0.2 0 0.4 0.1 0.6 0.1 0.2 0 0.3 0.1 0.4 0.1 0.1 0 0.2 0.1 0.2 0.1 0.2 0 0.3-0.1 0.3-0.2l0.2-0.9c-0.3-0.2-0.7-0.3-1-0.4 -0.4-0.1-0.7-0.1-1.2-0.1 -1.1 0-2 0.3-2.8 1 -0.7 0.6-1.3 1.5-1.8 2.7l-0.1-2.9c0-0.2 0-0.3-0.1-0.3 -0.1-0.1-0.2-0.1-0.3-0.1l-0.7 0 0 14 1.2 0 0-0.3Zm-8.7-12.9c0.5 0.2 1 0.5 1.3 0.9 0.4 0.4 0.7 0.9 0.9 1.5 0.2 0.6 0.3 1.3 0.3 2l-9.2 0c0.1-0.7 0.3-1.4 0.5-2 0.3-0.6 0.6-1.1 1-1.5 0.4-0.4 0.9-0.7 1.5-1 0.6-0.2 1.2-0.3 1.9-0.3 0.7 0.1 1.3 0.2 1.8 0.4m-4.4-0.8c-0.8 0.3-1.4 0.8-2 1.4 -0.5 0.6-1 1.3-1.2 2.2 -0.3 0.8-0.4 1.8-0.4 2.8 0 1.2 0.2 2.2 0.5 3.2 0.3 0.9 0.7 1.7 1.3 2.3 0.6 0.6 1.2 1.1 2 1.5 0.8 0.3 1.7 0.5 2.6 0.5 0.5 0 1-0.1 1.6-0.2 0.5-0.1 1-0.2 1.5-0.4 0.5-0.2 0.9-0.4 1.2-0.6 0.4-0.2 0.7-0.5 0.9-0.8l-0.4-0.5c-0.1-0.1-0.2-0.1-0.3-0.1 -0.1 0-0.2 0.1-0.4 0.2 -0.2 0.2-0.5 0.3-0.8 0.5 -0.4 0.2-0.8 0.4-1.3 0.5 -0.5 0.2-1.1 0.2-1.8 0.2 -0.8 0-1.5-0.1-2.1-0.4 -0.6-0.3-1.2-0.7-1.6-1.2 -0.4-0.5-0.8-1.2-1-2 -0.2-0.8-0.4-1.7-0.4-2.8l0-0.3 10.1 0c0.1 0 0.2 0 0.3-0.1 0.1-0.1 0.1-0.2 0.1-0.4 0-1-0.1-1.9-0.4-2.6 -0.3-0.8-0.7-1.4-1.2-1.9 -0.5-0.5-1.1-0.9-1.7-1.2 -0.7-0.3-1.4-0.4-2.2-0.4 -1.2 0.1-2.1 0.2-2.9 0.6m-18.8-5.1l4.3 0c1.8 0 3.1 0.3 3.9 1 0.8 0.7 1.3 1.7 1.3 3 0 0.5-0.1 1-0.3 1.5 -0.2 0.5-0.5 0.9-0.9 1.3 -0.4 0.4-0.9 0.7-1.6 0.9 -0.7 0.2-1.4 0.4-2.4 0.4l-4.3 0 0-8.1Zm5 9.3c0.8 0 1.6 0.1 2.2 0.3 0.7 0.2 1.2 0.5 1.7 0.8 0.4 0.4 0.8 0.8 1 1.3 0.2 0.5 0.4 1.1 0.4 1.7 0 1.4-0.4 2.4-1.3 3.2 -0.9 0.8-2.2 1.1-4 1.1l-5 0 0-8.4 5 0Zm0 9.5c1.1 0 2-0.1 2.8-0.4 0.8-0.2 1.5-0.6 2.1-1.1 0.6-0.5 1-1 1.3-1.7 0.3-0.7 0.4-1.4 0.4-2.3 0-1.3-0.4-2.4-1.3-3.2 -0.8-0.8-2-1.3-3.6-1.6 0.6-0.2 1.2-0.4 1.7-0.7 0.5-0.3 0.9-0.7 1.3-1.1 0.3-0.4 0.6-0.9 0.8-1.3 0.2-0.5 0.3-1 0.3-1.5 0-0.8-0.1-1.5-0.4-2.1 -0.3-0.6-0.7-1.2-1.2-1.6 -0.5-0.4-1.2-0.8-2.1-1 -0.8-0.2-1.8-0.3-2.9-0.3l-5.7 0 0 19.9 6.5 0Z" style="fill-rule:nonzero;fill:#1d1d1b"/>
    <path d="M159.8 60.1l0 78.7 -68.1 39.3 -68.1-39.3 0-78.7 34 19.7 0 39.3 34.1 19.7 34.1-19.7 0-39.3 34-19.7Z" style="fill-rule:nonzero;fill:#f08117"/>
    <path d="M91.7 20.8l68.1 39.3 -34 19.7 -34.1-19.7 -34.1 19.7 -34-19.7 68.1-39.3Z" style="fill-rule:nonzero;fill:#f59c4a"/>
    <path d="M159.8 138.8l0 39.3 -68.1 39.3 -34.1-19.7c34.1-19.6 68.2-39.3 102.2-58.9" style="fill-rule:nonzero;fill:#f59c4a"/>
  </g>
</svg>
