<svg xmlns="http://www.w3.org/2000/svg" xmlns:xlink="http://www.w3.org/1999/xlink" xmlns:serif="http://www.serif.com/" width="100%" height="100%" viewBox="0 0 397 249" version="1.1" xml:space="preserve" style="clip-rule:evenodd;fill-rule:evenodd;stroke-linejoin:round;stroke-miterlimit:1.41421">
  <rect id="ArtBoard1" x="0" y="0" width="397" height="248.5" fill="none"/>
  <g>
    <path d="M91.7 10.8l68.1 39.5 237.2 0 0 167 -397 0 0-167 23.6 0 68.1-39.5Z" style="fill-rule:nonzero;fill:#fff"/>
    <path d="M159.501 59.976l0 78.662 -68.104 39.276 -68.105-39.276 0-78.662 34.025 19.693 0 39.276 34.08 19.693 34.025-19.693 0-39.276 34.079-19.693Z" style="fill-rule:nonzero;fill:#f08117"/>
    <path d="M91.397 20.7l68.104 39.276 -34.079 19.693 -34.025-19.693 -34.08 19.693 -34.025-19.693 68.105-39.276Z" style="fill-rule:nonzero;fill:#f59c4a"/>
    <path d="M159.501 138.638l0 39.331 -68.104 39.331 -34.025-19.638c34.025-19.748 68.05-39.386 102.129-59.024" style="fill-rule:nonzero;fill:#f59c4a"/>
    <path d="M223.667 139.677c-4.759 1.368-8.862 2.024-12.363 2.024 -6.236 0-10.995-1.75-14.277-5.306 -3.337-3.555-4.978-8.588-4.978-15.207 0-6.455 1.696-11.487 5.033-15.098 3.336-3.61 8.096-5.415 14.167-5.415 3.994 0 8.096 0.601 12.418 1.75l0 5.142c-5.361-1.805-9.518-2.735-12.363-2.735 -4.212 0-7.494 1.422-9.846 4.322 -2.352 2.844-3.501 6.892-3.501 12.089 0 5.142 1.258 9.19 3.774 12.034 2.517 2.845 6.018 4.267 10.503 4.267 1.86 0 3.829-0.328 6.017-0.985l0-12.745 5.525 0 0 15.863 -0.109 0Z" style="fill-rule:nonzero;fill:#3b3a33"/>
    <rect x="248.283" y="96.025" width="3.884" height="49.506" fill="#3b3a33"/>
    <g>
      <path d="M286.848 134.864c1.422 0 2.68-0.219 3.774-0.711 1.095-0.493 2.024-1.149 2.79-1.97 0.766-0.82 1.313-1.86 1.751-3.063 0.383-1.204 0.601-2.571 0.601-4.048l0-23.413 7.276 0 0 23.413c0 2.297-0.383 4.486-1.149 6.455 -0.766 1.969-1.805 3.665-3.227 5.087 -1.423 1.422-3.118 2.571-5.088 3.337 -2.024 0.821-4.266 1.203-6.783 1.203 -2.516 0-4.759-0.382-6.783-1.203 -2.024-0.821-3.72-1.915-5.087-3.337 -1.422-1.422-2.462-3.118-3.228-5.087 -0.765-1.969-1.148-4.103-1.148-6.455l0-23.413 7.275 0 0 23.358c0 1.477 0.219 2.845 0.602 4.048 0.383 1.204 0.985 2.243 1.75 3.118 0.766 0.875 1.696 1.532 2.79 1.97 1.258 0.492 2.516 0.711 3.884 0.711Z" style="fill-rule:nonzero;fill:#3b3a33"/>
      <path d="M323.772 101.659c2.626 0 4.869 0.329 6.783 0.93 1.915 0.602 3.501 1.477 4.705 2.571 1.258 1.094 2.188 2.407 2.789 3.939 0.602 1.532 0.93 3.227 0.93 5.032 0 1.915-0.328 3.611-0.93 5.197 -0.656 1.587-1.586 2.954-2.844 4.048 -1.258 1.149-2.845 2.024-4.759 2.626 -1.915 0.656-4.103 0.93-6.674 0.93l-5.415 0 0 13.73 -7.276 0 0-39.057 12.691 0 0 0.054Zm0 19.638c1.313 0 2.516-0.164 3.501-0.492 0.985-0.328 1.805-0.82 2.462-1.422 0.656-0.602 1.148-1.368 1.477-2.243 0.328-0.875 0.492-1.914 0.492-3.009 0-1.039-0.164-1.969-0.492-2.844 -0.329-0.821-0.821-1.586-1.477-2.188 -0.657-0.602-1.477-1.039-2.462-1.368 -0.985-0.328-2.188-0.492-3.501-0.492l-5.415 0 0 14.004 5.415 0 0 0.054Z" style="fill-rule:nonzero;fill:#3b3a33"/>
      <path d="M374.208 140.717l-5.635 0c-0.656 0-1.149-0.164-1.531-0.493 -0.383-0.328-0.712-0.711-0.876-1.148l-2.899-7.987 -16.192 0 -2.899 7.987c-0.164 0.437-0.438 0.82-0.821 1.148 -0.382 0.329-0.929 0.493-1.531 0.493l-5.689 0 15.371-39.058 7.385 0 15.317 39.058Zm-12.855-14.77l-4.76-13.019c-0.218-0.602-0.492-1.258-0.711-2.079 -0.273-0.765-0.492-1.641-0.766-2.571 -0.218 0.93-0.492 1.806-0.711 2.571 -0.273 0.821-0.492 1.477-0.711 2.079l-4.704 12.964 12.363 0 0 0.055Z" style="fill-rule:nonzero;fill:#3b3a33"/>
    </g>
  </g>
</svg>
